<?xml version="1.0" encoding="utf-8"?>
<!-- Generator: Adobe Illustrator 27.5.0, SVG Export Plug-In . SVG Version: 6.00 Build 0)  -->
<svg version="1.1" id="Layer_1" xmlns="http://www.w3.org/2000/svg" xmlns:xlink="http://www.w3.org/1999/xlink" x="0px" y="0px"
	 viewBox="0 0 24 24" style="enable-background:new 0 0 24 24;" xml:space="preserve">
<g>
	<g>
		<g>
			<polygon points="16.7,9.8 13.8,9.2 16.7,8 17.3,8.7 			"/>
			<path d="M3.5,14.9L3.5,14.9L3.5,14.9L3.5,14.9z"/>
			<path d="M20.6,8.3c-0.3-0.8-0.6-1.4-0.7-1.6c-0.3-0.4-0.7-0.4-1-0.4C18,6.5,17.7,6.6,16.1,7c-0.2,0.1-0.7,0.2-0.9,0.1
				c-0.6-0.2-0.8-0.4-1.1-0.4c-0.5,0.1-1.5,0.5-2.5,1.3c-0.3,0.2-0.3,0.5-0.4,0.7c0,0,0,0.1,0.1,0.1c0.2,0,1.8,0.2,1.9,0.2
				c0,0,0,0,0-0.1c0,0,0,0,0-0.1c0.5-0.3,2.2-1.2,3.3-1.6c1.4-0.6,1.8-0.6,2.2-0.7c0.1,0,0.2,0,0.4,0c0.1,0,0.2,0.1,0.2,0.1
				c0.2,0.6,0.8,1.9,1.1,2.3c0,0-0.1,0.1-0.2,0.1c-0.1,0-0.2-0.2-0.3-0.2h-0.1c-1.7,1.1-3,1.5-3.2,1.6l0,0l-0.9-0.3c0,0,0,0,0.1-0.2
				V9.8c0-0.1-0.1-0.2-0.2-0.2c-0.2,0-6.6-1-8.1-1.1C6.8,8.4,6.2,8.8,5.9,9.1l0,0L6.8,10h0.1l0.7-0.3c0,0,0.1,0.3,0,0.3
				c-0.6,0.3-1.2,0.6-1.7,0.9c-0.2,0.1-0.2,0.3-0.3,0.6c0,0.1,0,0.2,0,0.2s1.2-0.6,2-1h0.1c0.1,0.1,0.1,0.1,0.2,0.2V11
				c-0.2,0.1-0.4,0.2-0.5,0.3s0,0.3,0,0.3l2-1c0,0,0.1,0.1-0.1,0.3c-0.3,0.2-3.6,1.9-3.9,1.9c-0.7,0-2.1-1.4-2.6-1.6
				c-0.4-0.2-0.9,0.1-1.5,0.5C1.1,11.8,1.2,12,1.2,12L2,11.5c0,0,0.1,0.1,0,0.2c-0.4,0.3-1.1,0.5-1.2,0.6c-0.1,0.1-0.1,0.6-0.1,0.6
				l0.8-0.4h0.1l1.8,1.7c0.1,0,0.2-0.1,0.3-0.1l-1.5-1.6v-0.1c0.2-0.1,0.3-0.1,0.6,0.1c0.2,0.2,1,0.8,1.7,0.7c0.2,0,0.3,0.1,0.3,0.1
				s-0.3,0.2-0.7,0.4c-0.2,0.1,0,0.4,0,0.4c1.9-0.8,4.3-1.8,4.6-1.9c0,0,0,0,0.1,0l0.6,0.4c0.1,0.1,4-1.4,5.2-2c0.1,0,0.7,0,1,0
				c0.1,0,0.1,0.1,0.1,0.1S6,14.6,3.5,14.5l0,0L3,14.7c0.3,0.2,0.2,0.5,0.7,0.3c0,0.1,0.1,0.1,0.1,0.2c0.1,0.2,0.1,0.2,0.8,0
				c1.8-0.6,10.2-3.1,12-3.9c1.1-0.4,2.5-1,3.4-1.6C20.8,9.6,21,9.3,20.6,8.3z M12.6,8.3c-0.1,0.1-0.8-0.1-0.8-0.1s0.8-0.7,1.6-0.8
				c0.2,0,0.7,0.2,0.7,0.2S13,8,12.6,8.3z M15.1,7.6l-1,0.5c0,0-0.2-0.1,0-0.3c0.1,0,0.2-0.1,0.4-0.2c0.1,0,0.1-0.1,0-0.2l-0.9-0.2
				c0.1-0.1,0.3-0.2,0.5-0.1c0.1,0,0.6,0.2,0.9,0.4C15.2,7.5,15.1,7.6,15.1,7.6z M15.3,10.1c-0.1,0.2-0.3,0.4-0.7,0.4
				c-0.2,0-7.2-1.4-7.2-1.4V9L15.3,10.1C15.3,10,15.3,10.1,15.3,10.1z"/>
		</g>
		<path d="M20.3,7L20.3,7L20.3,7L20.3,7L20.3,7z"/>
		<g>
			<path d="M23.3,12.2c-0.1-0.2-0.5-1.8-0.7-2.4l-1.1-2c-0.1,0.1-0.2,0.3-0.4,0.4c0,0,0,0-0.1,0h-0.1l0.6,2c0.1,0.3,0.3,0.6,0.5,0.9
				c0.1,0.1,0.7,1.1,1,1.5c0.1,0.1,0.2,0.1,0.2,0C23.2,12.5,23.3,12.3,23.3,12.2z M23,12.5L23,12.5L23,12.5c0,0-0.9-1.4-1.3-1.9
				c-0.1-0.2,0-0.2,0-0.2l0,0l0,0c0,0.1,1.1,1.5,1.3,1.7S23,12.5,23,12.5z"/>
			<path d="M20.3,4.7c-0.1-0.4-0.3-0.7-0.5-1c-0.1-0.1-0.8-1.1-1-1.5c0-0.1-0.1-0.1-0.2,0c-0.1,0.1-0.1,0.3-0.1,0.5
				C18.6,2.9,19,4.5,19.2,5l1,1.8l0.1-0.1h0.1c0.1,0,0.3,0,0.5,0L20.3,4.7z M19.8,4.6L19.8,4.6L19.8,4.6c-0.1-0.1-1.1-1.5-1.3-1.7
				c-0.1-0.2,0-0.4,0-0.4l0,0l0,0c0,0,0.9,1.4,1.3,1.9C20,4.5,19.8,4.6,19.8,4.6z"/>
			<g>
				<path d="M21.5,7c-0.3-0.1-0.8-0.1-1.1,0l0,0l0,0l0,0c0,0-0.1,0.1,0,0.1c0.2,0.4,0.3,0.7,0.5,1.1c0,0,0.1,0.1,0.1,0l0,0
					c0.3-0.3,0.5-0.6,0.7-1C21.7,7.1,21.7,7,21.5,7z M20.6,7.5l-0.2-0.4V7l0,0c0,0,0.7,0,0.9,0c0.1,0,0.1,0.1,0.1,0.1L20.6,7.5z"/>
			</g>
		</g>
		<path d="M18.1,7.1c0,0-0.1,0.5-0.3,1.1l-0.4-0.5l-0.3,0.1l0.5,0.7C17.4,9,17.2,9.4,17,9.7l0.5-0.2c0.1-0.1,0.2-0.3,0.3-0.6
			l0.3,0.4l0.3-0.1L18,8.5C18.1,7.9,18.2,7.3,18.1,7.1z"/>
	</g>
	<path d="M17.8,11.5c0,0,0-0.1-0.1-0.1l0,0c0-0.1-0.1-0.1-0.2-0.1c-0.1,0-0.1,0.1-0.1,0.2c0,0.1-0.4,0.9-0.4,1.4h0.1h0.1
		c0-0.3,0.1-0.8,0.3-1.1c0.2,0.3,0.4,0.6,0.5,1c0,0.2,0,0.4-0.2,0.6c-0.1,0.1-0.3,0.1-0.4,0.1c-0.1-0.1-0.2-0.3-0.2-0.5h-0.3
		c0,0.4,0.2,0.8,0.6,0.8c0.1,0,0.3,0,0.4-0.1c0.2-0.1,0.4-0.3,0.4-0.6C18.5,12.5,18.1,11.9,17.8,11.5z"/>
	<path d="M12.3,14.8c-0.1-0.1-0.2-0.3-0.3-0.4c0,0-0.1-0.2-0.2-0.1c-0.1,0-0.2,0.2-0.2,0.3c-0.1,0.3-0.2,0.5-0.2,1.1
		c0,0.1,0,0.3,0,0.4c0,0.2,0.2,0.3,0.3,0.4l0,0c0.1,0.1,0.2,0.1,0.3,0.1l0,0c0,0,0,0,0.1,0l0,0l0,0c0.6,0,1-0.7,0.5-1.5
		C12.5,14.9,12.5,14.8,12.3,14.8z M11.8,16.2c-0.2-0.1-0.2-0.4-0.2-0.6c0-0.4,0.1-0.6,0.2-1c0.3,0.4,0.7,1.2,0.3,1.6
		C12.1,16.2,12,16.2,11.8,16.2z"/>
	<path d="M16,16.6c0,0,0-0.1-0.1-0.1l0,0c0-0.1-0.1-0.1-0.2-0.1c-0.1,0-0.1,0.1-0.1,0.2s-0.4,0.9-0.4,1.4h0.1h0.1
		c0-0.3,0.1-0.8,0.3-1.1c0.2,0.3,0.4,0.6,0.5,1c0,0.2,0,0.4-0.2,0.6c-0.1,0.1-0.3,0.1-0.4,0.1c-0.1-0.1-0.2-0.3-0.2-0.5h-0.3
		c0,0.4,0.2,0.8,0.6,0.8c0.1,0,0.3,0,0.4-0.1c0.2-0.1,0.4-0.3,0.4-0.6C16.8,17.6,16.3,16.9,16,16.6z"/>
	<path d="M7.8,16.7v-0.1l0,0c0-0.1-0.1-0.1-0.2-0.1c-0.1,0-0.1,0.1-0.1,0.1C7.5,16.7,7,17.4,7,18h0.1h0.1c0-0.3,0.2-0.8,0.3-1.1
		c0.2,0.3,0.4,0.7,0.4,1c0,0.2,0,0.4-0.2,0.5c-0.1,0.1-0.3,0.1-0.4,0c-0.1-0.1-0.2-0.3-0.2-0.5H6.8c0,0.4,0.1,0.8,0.6,0.8
		c0.1,0,0.3,0,0.4-0.1C8,18.5,8.2,18.3,8.3,18C8.5,17.8,8.1,17.1,7.8,16.7z"/>
	<path d="M12.3,19.8c0,0,0-0.1-0.1-0.1l0,0c0-0.1-0.1-0.1-0.2-0.1c-0.1,0-0.1,0.1-0.1,0.2s-0.3,0.9-0.3,1.5h0.1h0.1
		c0-0.3,0.1-0.8,0.2-1.1c0.2,0.3,0.5,0.6,0.6,0.9c0,0.2,0,0.4-0.1,0.6c-0.1,0.1-0.3,0.1-0.4,0.1C12,21.7,12,21.5,12,21.3h-0.3
		c0.1,0.4,0.3,0.7,0.7,0.7c0.1,0,0.3-0.1,0.4-0.1c0.2-0.1,0.4-0.4,0.4-0.6C13.3,20.8,12.7,20.1,12.3,19.8z"/>
	<path d="M20.1,17.9v-0.1l0,0c0-0.1-0.1-0.1-0.2-0.1c-0.1,0-0.1,0.1-0.1,0.1c0,0.1-0.5,0.8-0.5,1.4h0.1h0.1c0-0.3,0.2-0.8,0.4-1.1
		c0.2,0.3,0.4,0.7,0.4,1c0,0.2,0,0.4-0.2,0.5c-0.1,0.1-0.3,0.1-0.4,0c-0.1-0.1-0.2-0.3-0.2-0.5h-0.3c0,0.4,0.1,0.8,0.5,0.8
		c0.1,0,0.3,0,0.4-0.1c0.2-0.1,0.4-0.3,0.5-0.6C20.8,18.9,20.3,18.2,20.1,17.9z"/>
</g>
</svg>
