<?xml version="1.0" encoding="utf-8"?>
<!-- Generator: Adobe Illustrator 27.5.0, SVG Export Plug-In . SVG Version: 6.00 Build 0)  -->
<svg version="1.1" id="Layer_1" xmlns="http://www.w3.org/2000/svg" xmlns:xlink="http://www.w3.org/1999/xlink" x="0px" y="0px"
	 viewBox="0 0 24 24" style="enable-background:new 0 0 24 24;" xml:space="preserve">
<g>
	<g>
		<g>
			<g>
				<path d="M13.7,17.4c0,0,0.1,0,0.1,0.3c0.1,0.3,0.1,0.8,0.3,1.7c0.1,0.2,0.1,0.5,0.2,0.7c0.1,0.1,0.1,0.3,0.2,0.4
					c0.1,0.1,0.2,0.3,0.3,0.4c0.4,0.5,1.2,1,2.2,1.1c0.5,0.1,1.1,0.1,1.6-0.1c0.6-0.1,1.2-0.4,1.7-0.8c0.1-0.1,0.2-0.2,0.4-0.4
					c0.1-0.1,0.2-0.3,0.3-0.4c0.2-0.3,0.3-0.6,0.4-1c0.1-0.8,0-1.6-0.1-2.6c-0.2-2-0.4-4.6-0.7-7.4c-0.1-0.7-0.1-1.4-0.2-2.1
					s-0.1-1.4-0.3-2.1c-0.1-0.7-0.4-1.3-0.7-1.9c-0.4-0.6-0.9-1-1.5-1.2c-1.2-0.4-2.6-0.2-3.4,0.6C14.1,3,13.8,3.5,13.7,4
					c-0.2,0.5-0.2,1-0.2,1.4c0,0.9,0.1,1.6,0.1,2.1c0,0.2,0,0.4,0,0.6c0,0.1,0,0.2,0,0.2s0-0.3-0.1-0.8c0-0.5-0.1-1.2-0.1-2.1
					c0-0.4,0-0.9,0.2-1.5c0.2-0.5,0.4-1,0.9-1.4c0.3-0.5,0.9-0.7,1.6-0.9c0.6-0.1,1.3-0.1,2,0.1s1.3,0.7,1.7,1.3
					c0.4,0.6,0.6,1.3,0.8,2c0.1,0.8,0.2,1.5,0.2,2.2c0.1,0.7,0.1,1.4,0.2,2.1c0.3,2.8,0.5,5.4,0.7,7.4c0.1,0.9,0.2,1.8,0.1,2.7
					c-0.1,0.4-0.2,0.9-0.4,1.2c-0.1,0.2-0.2,0.4-0.3,0.5c-0.1,0.1-0.3,0.3-0.4,0.4c-0.6,0.5-1.2,0.8-1.9,0.9
					c-0.6,0.1-1.2,0.1-1.8,0.1c-1.1-0.2-1.9-0.7-2.4-1.3c-0.1-0.2-0.2-0.3-0.3-0.5s-0.1-0.3-0.2-0.5c-0.1-0.3-0.2-0.6-0.2-0.8
					c-0.2-1-0.1-1.5-0.1-1.7C13.7,17.4,13.7,17.4,13.7,17.4L13.7,17.4z"/>
			</g>
		</g>
		<g>
			<g>
				<path d="M18.1,16.9c0,0.1-0.1,0.1-1.6,0.2c-0.8,0.1-1.9,0.1-3.6,0.2c-0.9,0-1.8,0.1-3,0.2c-0.6,0,0.8-0.1,0.1,0
					c-0.3,0-0.7,0-1,0.1c-0.4,0-0.9-0.2-1.1-0.7c-0.1-0.2-0.1-0.3-0.1-0.4s0-0.2,0-0.3c0-0.2,0-0.4,0-0.7c0-0.5,0-0.9-0.1-1.5
					c0-1-0.1-2.1-0.1-3.2c0-0.3,0-0.6,0-0.8V9.6c0-0.1,0-0.3,0-0.5C7.7,8.8,8,8.5,8.3,8.4c0.2-0.1,0.4-0.1,0.5-0.1h0.4
					c1.1,0,0.3,0,1.4,0c2-0.2,4-0.3,5.4-0.3c0.7,0,1.3,0,1.7,0c0.4,0,0.6,0,0.6,0s-0.2,0-0.6,0.1c-0.4,0-1,0.1-1.7,0.1
					c-1.4,0.1-3.4,0.2-5.5,0.3c-1.1,0.1-0.2,0-1.4,0.1H8.7c-0.2,0-0.2,0-0.4,0.1C8.1,8.7,8,8.9,7.9,9.1c0,0.1,0,0.2,0,0.4v0.4
					c0,0.3,0,0.6,0,0.8C8,11.9,8.1,13,8.1,14c0,0.5,0,1,0.1,1.5c0,0.2,0,0.5,0,0.7s0,0.4,0.1,0.5C8.4,17,8.7,17.1,9,17.1s0.7,0,1,0
					c0.7,0-0.7,0.1-0.1,0c1.1,0,2.1-0.1,3-0.1c1.7-0.1,2.9-0.1,3.6-0.1C18,16.7,18.1,16.8,18.1,16.9L18.1,16.9z"/>
			</g>
		</g>
		<g>
			<g>
				<path d="M16.1,16.8c0,0,0.1,0,0.1,0.1s0,0.4,0.1,0.8c0,0.2,0.1,0.5,0.3,0.8c0.2,0.2,0.6,0.4,1,0.2c0.2-0.1,0.4-0.3,0.5-0.5
					s0.2-0.5,0.3-0.9c0-0.3,0-0.7,0-1.1s0-0.9,0-1.3c0-1,0-2.3-0.1-3.7c0-0.7-0.1-1.4-0.1-2.1c-0.1-0.7-0.1-1.4-0.3-2.1
					c-0.1-0.3-0.2-0.6-0.4-0.8c-0.1-0.2-0.4-0.4-0.7-0.4c-0.3-0.1-0.5,0-0.7,0.1s-0.3,0.3-0.4,0.5c-0.1,0.4-0.1,0.8-0.2,1
					c0,0.2,0,0.4,0,0.4s0-0.1-0.1-0.4c0-0.2,0-0.6,0.1-1.1c0.1-0.2,0.2-0.5,0.4-0.6c0.2-0.2,0.6-0.3,0.9-0.2c0.4,0.1,0.7,0.3,1,0.5
					c0.3,0.3,0.4,0.6,0.5,0.9s0.2,0.7,0.2,1c0,0.4,0.1,0.7,0.1,1.1c0.1,0.7,0.1,1.4,0.2,2.1c0.1,1.4,0.1,2.7,0.1,3.8
					c0,0.5,0,0.9,0,1.3c0,0.4,0,0.8-0.1,1.2c-0.1,0.4-0.2,0.7-0.3,1c-0.2,0.3-0.5,0.5-0.7,0.6c-0.3,0.1-0.6,0.2-0.9,0.1
					s-0.5-0.2-0.6-0.4C16,18.3,16,18,16,17.8c0-0.5,0-0.8,0-0.9S16.1,16.8,16.1,16.8L16.1,16.8z"/>
			</g>
		</g>
		<g>
			<g>
				<path d="M7.9,10.4c0-0.1,0-0.1,0.2-0.2c0.2-0.1,0.5-0.1,1-0.3c0.3-0.1,0.8-0.4,1.1-0.7s0.5-0.7,0.6-0.6c0.1,0,0,0.4-0.3,0.8
					C10.4,9.6,10.2,9.8,10,10c-0.2,0.2-0.4,0.3-0.6,0.4c-0.3,0.1-0.6,0.2-0.8,0.2s-0.3,0-0.4,0C7.9,10.5,7.9,10.5,7.9,10.4L7.9,10.4
					z"/>
			</g>
		</g>
		<g>
			<g>
				<path d="M8.1,15.4c0-0.1,0-0.1,0.2-0.2c0.2,0,0.6-0.1,1.3,0.1c0.4,0.1,0.9,0.4,1.3,0.8c0.4,0.4,0.5,0.8,0.5,0.8
					c-0.1,0-0.3-0.3-0.7-0.5c-0.4-0.3-0.9-0.5-1.2-0.6c-0.6-0.2-0.9-0.2-1.1-0.3C8.1,15.5,8.1,15.5,8.1,15.4L8.1,15.4z"/>
			</g>
		</g>
		<g>
			<g>
				<path d="M12.4,19.4c0,0.3,0.2,0.7,0.4,1.1c0.5,0.8,1.1,1.2,1.1,1.1s-0.5-0.5-0.9-1.3c-0.2-0.4-0.4-0.7-0.4-1
					c-0.1-0.3-0.1-0.4-0.1-0.4C12.4,19,12.4,19.1,12.4,19.4L12.4,19.4z"/>
			</g>
			<g>
				<path d="M11.6,18.7c0,0,0,0.3,0,0.7c0.1,0.4,0.3,1,0.6,1.5c0.3,0.6,0.7,1,1.1,1.2c0.3,0.3,0.6,0.4,0.6,0.4
					c0-0.1-0.8-0.6-1.4-1.7C11.7,19.7,11.6,18.7,11.6,18.7L11.6,18.7z"/>
			</g>
		</g>
		<g>
			<g>
				<path d="M9.9,6.8c0.2,0,0.4,0,0.4,0s-0.1-0.1-0.4-0.2c-0.2,0-0.6,0-0.9,0C8.2,6.8,7.8,7.2,7.8,7.3c0,0,0.5-0.3,1.2-0.4
					C9.3,6.8,9.6,6.8,9.9,6.8L9.9,6.8z"/>
			</g>
			<g>
				<path d="M10.2,6C9.8,6,9.3,6,8.8,6.1S7.9,6.4,7.6,6.6S7.2,7,7.2,7c0,0.1,0.7-0.5,1.7-0.7s1.8-0.1,1.8-0.1
					C10.7,6.2,10.5,6.1,10.2,6L10.2,6z"/>
			</g>
		</g>
	</g>
	<g>
		<g>
			<g>
				<path d="M3.6,10.5c0.7,0.8,1.5,1.6,2.2,2.3c0.1,0.1,0.3,0.2,0.3,0.4c0,0.1-0.2,0.3-0.2,0.3c-0.4,0.5-0.8,1-1.2,1.5
					c-0.3,0.4-0.6,0.8-0.9,1.2c-0.2,0.2,0.3,0.4,0.5,0.2c0.7-0.9,1.4-1.8,2.1-2.7c0.1-0.1,0.2-0.2,0.2-0.3c0.1-0.3,0-0.5-0.1-0.7
					c-0.4-0.4-0.8-0.9-1.3-1.3C4.8,11,4.4,10.7,4,10.3C3.8,10.1,3.3,10.3,3.6,10.5L3.6,10.5z"/>
			</g>
		</g>
		<g>
			<g>
				<path d="M2.1,11.2c0.5,0.6,1.1,1.1,1.6,1.7C3.8,13,4,13.1,4,13.2c0,0.1-0.1,0.2-0.2,0.2c-0.3,0.4-0.6,0.7-0.8,1.1
					c-0.2,0.3-0.5,0.6-0.7,0.9c-0.1,0.2,0.2,0.3,0.4,0.1c0.5-0.6,1-1.3,1.5-1.9c0.1-0.1,0.1-0.2,0.2-0.2c0.1-0.2,0-0.4-0.1-0.5
					c-0.3-0.3-0.6-0.6-0.9-1c-0.3-0.3-0.6-0.6-0.8-0.9C2.3,10.9,2,11,2.1,11.2L2.1,11.2z"/>
			</g>
		</g>
	</g>
	<g>
		<g>
			<path d="M14.9,10c0,0,0,0.1-0.1,0.1s-0.3,0.1-0.7,0.2c-0.2,0.1-0.4,0.2-0.7,0.3c-0.3,0.2-0.6,0.4-0.8,0.8
				c-0.3,0.4-0.5,0.9-0.4,1.4c0,0.6,0.4,1.2,1.1,1.6c0.7,0.5,1.9,0.7,3.1,0.3c0.6-0.2,1.1-0.5,1.5-1s0.6-1.1,0.5-1.6
				c-0.1-0.6-0.4-1-0.8-1.4c-0.4-0.3-0.8-0.5-1.2-0.6C15.4,10,14.9,10.1,14.9,10c0,0,0.1,0,0.3-0.1c0.2,0,0.6,0,1,0.1
				c0.4,0.1,0.9,0.3,1.3,0.6s0.8,0.9,1,1.5c0.1,0.7-0.1,1.4-0.5,1.9c-0.4,0.6-1,1-1.6,1.2c-1.3,0.5-2.6,0.2-3.4-0.3
				c-0.8-0.5-1.2-1.3-1.3-2s0.2-1.3,0.5-1.7s0.7-0.7,1-0.8c0.3-0.2,0.6-0.3,0.8-0.3c0.5-0.1,0.7-0.1,0.8-0.1S14.9,10,14.9,10
				L14.9,10z"/>
		</g>
	</g>
</g>
</svg>
