<?xml version="1.0" encoding="utf-8"?>
<!-- Generator: Adobe Illustrator 27.5.0, SVG Export Plug-In . SVG Version: 6.00 Build 0)  -->
<svg version="1.1" id="Layer_1" xmlns="http://www.w3.org/2000/svg" xmlns:xlink="http://www.w3.org/1999/xlink" x="0px" y="0px"
	 viewBox="0 0 24 24" style="enable-background:new 0 0 24 24;" xml:space="preserve">
<g id="_x30_4_Document">
	<g>
		<path d="M7.3,20.2c2.4,1,5.8,2.3,7,2.7c1.6,0.4,2.2,0,2.8-1.5c1.6-4,3.7-9.2,5.2-13.1c0.6-1.5,0.4-2.2-1.2-3
			c-0.6-0.3-1.9-0.8-3.6-1.5c0-1.3-0.7-1.7-2-1.9c-1.7-0.2-8.2-0.9-9.9-1S3.4,1.4,3.2,3L1.8,17c-0.2,1.6,0.2,2.2,1.8,2.6
			C4.4,19.9,5.8,20,7.3,20.2z M13.9,20.7c0.1,0,0.2,0,0.3,0l-1.4,1.2c-0.2-0.1-0.5-0.2-0.7-0.3l1.1-0.9
			C13.4,20.7,13.6,20.7,13.9,20.7L13.9,20.7z M19.1,4.9l-1.7,1.4l0.1-1l0.9-0.8C18.6,4.7,18.8,4.8,19.1,4.9z M20,5.3l-2.8,2.3l0.1-1
			l2-1.7C19.5,5.1,19.8,5.2,20,5.3z M20.9,5.7l-3.8,3.2l0.1-1l3-2.5C20.5,5.5,20.7,5.6,20.9,5.7z M21.7,6.1l-4.8,4l0.1-1l4-3.4
			C21.3,5.9,21.5,6,21.7,6.1z M19,15.4l-2.8,2.4l0.1-1l3.2-2.7C19.4,14.5,19.2,15,19,15.4L19,15.4z M19.7,13.7l-3.4,2.9l0.1-1
			l3.8-3.2C20.1,12.8,19.9,13.2,19.7,13.7L19.7,13.7z M20.4,11.9l-4,3.3l0.1-1l4.4-3.7C20.2,12.4,20.5,11.8,20.4,11.9L20.4,11.9z
			 M21.1,10.1l-4.5,3.8l0.1-1l5-4.2L21.1,10.1z M21.9,8.1L21.9,8.1l-0.1,0.2l-5.1,4.3l0.1-1L22.2,7C22.2,7.5,22.1,7.8,21.9,8.1z
			 M17.5,5.1c0.1-0.6,0.1-0.7,0.1-0.8c0.2,0.1,0.4,0.2,0.6,0.2L17.5,5.1z M16.2,18.5v-0.4l2.7-2.3c-0.2,0.4-0.4,0.9-0.5,1.3L16.2,19
			C16.1,18.9,16.1,18.7,16.2,18.5L16.2,18.5z M16,19.4l2.2-1.8c-0.2,0.4-0.4,0.9-0.5,1.3l-3.9,3.3c-0.2-0.1-0.5-0.2-0.7-0.3l1.6-1.3
			C15.3,20.5,15.8,20.1,16,19.4z M11.1,21.3l0.8-0.6c0.4,0,0.7,0,1,0.1l-1,0.9C11.6,21.4,11.3,21.4,11.1,21.3L11.1,21.3z M10.1,20.9
			l0.4-0.4c0.3,0,0.7,0.1,1,0.1l-0.7,0.6C10.6,21.1,10.4,21,10.1,20.9z M9.2,20.5l0.1-0.1c0.3,0,0.6,0.1,0.9,0.1l-0.4,0.3
			C9.7,20.7,9.4,20.6,9.2,20.5L9.2,20.5z M8.8,20.4L8.8,20.4c0.1,0,0.1,0,0.2,0H8.8C8.9,20.4,8.9,20.4,8.8,20.4z M14,22.3l3.5-3
			c-0.2,0.4-0.4,0.9-0.5,1.3l-2.2,1.8c-0.1,0-0.2-0.1-0.3-0.1C14.3,22.4,14.1,22.4,14,22.3z M15,22.6l1.7-1.4v0.1
			C16.3,22.1,16,22.7,15,22.6z M22.2,6.9l-5.4,4.5l0.1-1l4.9-4.2C22.1,6.5,22.2,6.7,22.2,6.9L22.2,6.9z M2.4,17.1l1.4-14
			c0.1-1.4,0.5-1.8,1.9-1.7c1.7,0.1,8.2,0.7,9.8,1c1.1,0.2,1.6,0.5,1.6,1.6c0,0.5,0,0.5-1.4,14.5c-0.1,1.4-0.5,1.8-1.9,1.8l0,0
			c-1.7,0-8.4-0.6-10-1C2.5,19,2.3,18.5,2.4,17.1L2.4,17.1z"/>
		<path d="M5.3,4.8C5.3,4.9,5.3,4.9,5.3,4.8c3.1,0.2,6.3,0.5,9.5,0.8c0.1,0,0.2-0.1,0.2-0.2s-0.1-0.2-0.2-0.2l0,0
			c-3.1-0.3-6.3-0.5-9.5-0.8c-0.1,0-0.2,0.1-0.2,0.2C5.1,4.7,5.2,4.8,5.3,4.8L5.3,4.8z"/>
		<path d="M5,7.5C5,7.5,5.1,7.5,5,7.5c3.1,0.2,6.3,0.5,9.5,0.8c0.1,0,0.2-0.1,0.2-0.2c0-0.1-0.1-0.2-0.2-0.2l0,0
			C11.4,7.6,8.2,7.4,5,7.1c-0.1,0-0.2,0.1-0.2,0.2S4.9,7.5,5,7.5L5,7.5z"/>
		<path d="M4.8,10.2L4.8,10.2c3.1,0.2,6.3,0.5,9.5,0.8c0.1,0,0.2-0.1,0.2-0.2c0-0.1-0.1-0.2-0.2-0.2l0,0c-3.1-0.3-6.3-0.5-9.5-0.8
			c-0.1,0-0.2,0.1-0.2,0.2C4.6,10.1,4.7,10.2,4.8,10.2L4.8,10.2z"/>
		<path d="M4.5,12.9L4.5,12.9c3.1,0.2,6.3,0.5,9.5,0.8c0.1,0,0.2-0.1,0.2-0.2c0-0.1-0.1-0.2-0.2-0.2l0,0c-3.1-0.3-6.3-0.5-9.5-0.8
			c-0.1,0-0.2,0.1-0.2,0.2C4.3,12.8,4.4,12.9,4.5,12.9L4.5,12.9z"/>
		<path d="M4.3,15.6L4.3,15.6c3.1,0.2,6.3,0.5,9.5,0.8c0.1,0,0.2-0.1,0.2-0.2S13.9,16,13.8,16l0,0c-3.1-0.3-6.3-0.5-9.5-0.8
			c-0.1,0-0.2,0.1-0.2,0.2C4.1,15.5,4.1,15.6,4.3,15.6L4.3,15.6z"/>
		<path d="M15.9,8.6L15.9,8.6c-0.1,0-0.1,0-0.1,0.1v0.5c0,0.1,0,0.1,0.1,0.1l0,0c0.1,0,0.1,0,0.1-0.1V8.7C16,8.6,16,8.6,15.9,8.6z"
			/>
		<path d="M11.9,3.1L15,3.2c0.9,0,1.1,0.3,1,1.1c0,0.9-0.1,2.4-0.2,3.8c0,0.1,0,0.1,0.1,0.1l0,0c0.1,0,0.1,0,0.1-0.1
			c0.1-1.4,0.2-2.9,0.2-3.8S16,3.1,15,3l-3.1-0.1c-0.1,0-0.1,0-0.1,0.1C11.8,3,11.9,3.1,11.9,3.1L11.9,3.1z"/>
		<path d="M4.9,18.4l6.1,0.4c0.1,0,0.1,0,0.1-0.1s0-0.1-0.1-0.1l0,0l-6.1-0.4c-1.3-0.1-1.5-0.5-1.3-1.6c0-0.1,0-0.1-0.1-0.1
			s-0.1,0-0.1,0.1C3.1,17.8,3.5,18.3,4.9,18.4L4.9,18.4z"/>
	</g>
</g>
</svg>
