<?xml version="1.0" encoding="utf-8"?>
<!-- Generator: Adobe Illustrator 27.5.0, SVG Export Plug-In . SVG Version: 6.00 Build 0)  -->
<svg version="1.1" id="Layer_1" xmlns="http://www.w3.org/2000/svg" xmlns:xlink="http://www.w3.org/1999/xlink" x="0px" y="0px"
	 viewBox="0 0 24 24" style="enable-background:new 0 0 24 24;" xml:space="preserve">
<g>
	<path d="M3.4,11.7L3.4,11.7c0.2,0.4,0.3,0.8,0.4,1.1C3.9,13,4.2,13.1,4.4,13c0,0,0.1,0,0.1-0.1l0.1-0.1l0.1-0.1
		c0.1-0.2,0.3-0.4,0.4-0.6c0.1-0.1,0.1-0.2,0.2-0.3l0.1-0.1l0,0c0,0,0.1,0,0.2,0s0.2,0,0.2,0c0.6-0.1,0.9-0.1,0.9-0.2
		c0,0-0.3-0.1-0.9,0c-0.1,0-0.2,0-0.2,0H5.5c0,0-0.1,0-0.2,0s-0.1,0.1-0.2,0.1L5,11.7c-0.1,0.1-0.1,0.2-0.2,0.2
		c-0.1,0.2-0.3,0.3-0.4,0.5l-0.1,0.1l0,0l0,0H4.2c-0.1-0.4-0.2-0.7-0.4-1.1c0-0.1-0.1-0.2-0.3-0.3c-0.1,0-0.1,0-0.2-0.1
		c-0.1,0-0.3-0.1-0.4-0.1s-0.3-0.1-0.4-0.1H2.3l0,0l0,0l0.2-0.1c0.1-0.1,0.2-0.2,0.4-0.3c0.1-0.1,0.3-0.2,0.4-0.3L3.4,10
		c0,0,0,0,0.1-0.1s0.1-0.1,0.1-0.2V9.6v0.1c0-0.3,0-0.5,0-0.8c0-0.1,0-0.3,0-0.4l0,0l0,0l0,0l0,0l0.1,0.1L4,8.8
		C4.2,8.9,4.4,9,4.6,9.2c0.1,0.1,0.3,0.1,0.4,0c0.1,0,0.1-0.1,0.2-0.1S5.4,9,5.6,8.9c0.2-0.1,0.5-0.2,0.7-0.3c0.1,0,0.1,0,0.1,0l0,0
		c0,0.1,0,0.1-0.1,0.2C6.2,9,6.2,9.2,6.1,9.4C6.1,9.5,6,9.6,6,9.7v0.1C6,9.9,6,9.9,6,10c0,0.1,0.1,0.1,0.1,0.2l0.1,0.1
		c0.1,0.1,0.1,0.1,0.2,0.2c0.2,0.2,0.4,0.4,0.5,0.6c0.1,0.1,0,0.2,0,0.3c-0.1,0.1-0.1,0.1-0.1,0.1h0.1L7,11.4c0-0.1,0-0.2,0-0.3
		c-0.1-0.2-0.3-0.4-0.5-0.6c0-0.1-0.1-0.1-0.1-0.2l-0.1-0.1c0,0,0,0,0-0.1c0,0,0,0,0-0.1c0,0,0-0.1,0.1-0.1c0-0.1,0.1-0.2,0.1-0.3
		C6.6,9.4,6.7,9.2,6.7,9c0-0.1,0-0.1,0.1-0.2c0-0.1,0-0.2,0-0.3S6.7,8.3,6.5,8.3c-0.1,0-0.2,0-0.3,0C6,8.4,5.7,8.5,5.5,8.6
		c-0.1,0-0.2,0.1-0.4,0.1L4.9,8.8l0,0C4.7,8.7,4.5,8.6,4.3,8.4C4.2,8.3,4.1,8.3,4,8.2L3.8,8.1C3.7,8,3.6,8,3.5,8S3.3,8.1,3.2,8.2
		c0,0-0.1,0.1-0.1,0.2c0,0.1,0,0.1,0,0.2V9v0.8v0.1l0,0l-0.2,0c-0.1,0.1-0.3,0.2-0.4,0.3s-0.3,0.2-0.4,0.3L2,10.6c0,0-0.1,0-0.1,0.1
		c-0.1,0.1-0.1,0.3-0.1,0.4c0,0.1,0.1,0.3,0.3,0.3c0.1,0,0.2,0,0.2,0c0.2,0,0.3,0.1,0.5,0.1c0.1,0,0.3,0.1,0.4,0.1L3.4,11.7z"/>
	<path d="M11.6,3.8L11.6,3.8L11.8,4c0.2,0.2,0.3,0.4,0.5,0.6l0.1,0.2l0,0l0,0l0,0v0.1v0.2c-0.1,0.2-0.1,0.5-0.2,0.7
		c0,0.1-0.1,0.2-0.1,0.3v0.1v0.1c0,0.1,0.1,0.2,0.2,0.2c0.1,0.1,0.2,0.1,0.3,0.1h0.1h0.1c0.1,0,0.2-0.1,0.3-0.1
		c0.2-0.1,0.4-0.2,0.5-0.2s0.2-0.1,0.2-0.1h0.1c0,0,0,0,0.1,0c0,0,0.1,0,0.1,0.1c0.1,0,0.1,0.1,0.2,0.1c0.1,0.1,0.2,0.1,0.3,0.2
		C15,6.8,15.2,7,15.2,6.9c0,0-0.2-0.2-0.5-0.5c-0.1-0.1-0.2-0.1-0.3-0.2c-0.1,0-0.1-0.1-0.2-0.1c0,0,0,0-0.1-0.1c0,0-0.1,0-0.2,0
		s-0.1,0-0.2,0h-0.1c-0.1,0-0.2,0.1-0.2,0.1c-0.2,0.1-0.3,0.1-0.5,0.2c-0.1,0-0.2,0.1-0.3,0.1h-0.1l0,0l0,0l0,0l0,0l0,0
		c0-0.1,0.1-0.2,0.1-0.3c0.1-0.2,0.1-0.5,0.2-0.7l0.1-0.2V5.1c0-0.1,0-0.1,0-0.2s0-0.1-0.1-0.2V4.6l0,0l-0.1-0.2
		c-0.2-0.2-0.3-0.4-0.5-0.6l-0.1-0.2L12,3.5l0,0l0,0c0.3,0,0.6,0,0.9,0c0.1,0,0.3,0,0.5,0h0.1h0.1c0.1,0,0.1-0.1,0.2-0.1
		c0,0,0-0.1,0.1-0.1l0,0L14,3.2c0.2-0.3,0.3-0.5,0.5-0.8l0.1-0.2l0,0l0,0l0,0l0,0l0,0l0,0c0.1,0.3,0.2,0.5,0.3,0.8
		c0,0.1,0.1,0.3,0.1,0.4v0.1c0,0.1,0.1,0.1,0.1,0.2c0.1,0.1,0.2,0.1,0.3,0.1c0.3,0.1,0.5,0.1,0.8,0.2c0.1,0,0.2,0.1,0.4,0.1h0.2l0,0
		v0.1c-0.1,0.1-0.2,0.1-0.3,0.2c-0.2,0.1-0.3,0.3-0.5,0.4c-0.1,0.1-0.2,0.1-0.2,0.2l-0.1,0.1c-0.1,0.1-0.1,0.1-0.1,0.2s0,0.1,0,0.2
		v0.1c0,0.1,0,0.2,0,0.2c0,0.3,0.1,0.6,0.1,0.8c0,0.1,0,0.1,0,0.2v0.1C15.7,7,15.6,7,15.6,7c-0.1,0-0.2,0-0.2,0s0,0.1,0.2,0.1
		c0.1,0,0.2,0,0.2-0.1c0,0,0.1-0.1,0.1-0.2c0,0,0-0.1,0-0.2c0-0.2,0-0.5,0-0.8c0-0.1,0-0.2,0-0.2c0-0.1,0-0.2,0-0.2l0,0L16,5.3
		c0.1-0.1,0.2-0.1,0.2-0.2c0.2-0.1,0.3-0.2,0.5-0.4c0.1-0.1,0.2-0.1,0.3-0.2c0.2-0.1,0.2-0.4,0.1-0.5c0-0.1-0.1-0.2-0.2-0.2
		s-0.1,0-0.1,0h-0.1c-0.1,0-0.2-0.1-0.4-0.1c-0.2-0.1-0.5-0.1-0.7-0.2c-0.1,0-0.1,0-0.1,0l0,0V3.4c0-0.1-0.1-0.3-0.1-0.4
		c-0.1-0.3-0.2-0.5-0.3-0.8c0-0.1-0.1-0.2-0.2-0.3c-0.1-0.1-0.3-0.1-0.4,0c-0.1,0-0.1,0.1-0.2,0.1c0,0,0,0,0,0.1l0,0L14,2
		c-0.2,0.3-0.3,0.5-0.5,0.8l-0.1,0.1l0,0l0,0l0,0l0,0l0,0c-0.2,0-0.3,0-0.5,0c-0.3,0-0.6,0-0.9,0s-0.5,0.3-0.4,0.6
		C11.6,3.6,11.6,3.7,11.6,3.8L11.6,3.8z"/>
	<path d="M22.1,10.5C22.1,10.5,22,10.5,22.1,10.5l-0.2-0.1c-0.1-0.1-0.2-0.1-0.3-0.2c-0.2-0.1-0.4-0.3-0.6-0.5c-0.1-0.1,0,0-0.1,0
		l0,0V9.6c0-0.1,0-0.3,0-0.4c0-0.3,0-0.6,0-0.9c0-0.1,0-0.3-0.1-0.4c-0.1-0.1-0.2-0.2-0.4-0.1c-0.1,0-0.1,0-0.2,0.1h-0.1l0,0L20,8
		c-0.2,0.2-0.5,0.4-0.7,0.5l-0.1,0.1l0,0l0,0l0,0l0,0l0,0c-0.1,0-0.3-0.1-0.4-0.1c-0.3-0.1-0.6-0.2-0.8-0.3
		c-0.3-0.1-0.6,0.1-0.6,0.4c0,0.1,0,0.1,0,0.2v0.1l0.1,0.2c0.1,0.3,0.2,0.5,0.3,0.8l0.1,0.2v0.1l0,0l0,0l-0.1,0.1l-0.1,0.2
		c-0.1,0.2-0.3,0.4-0.4,0.6c-0.1,0.1-0.1,0.2-0.2,0.3c0,0,0,0.1-0.1,0.1v0.1c0,0.1,0,0.2,0.1,0.3c0,0.1,0.1,0.1,0.2,0.2h0.1h0.1
		c0.1,0,0.2,0,0.3,0c0.2,0,0.4,0,0.6,0c0.1,0,0.2,0,0.3,0h0.1c0,0,0,0,0.1,0c0,0,0.1,0,0.1,0.1s0.1,0.1,0.1,0.2
		c0.1,0.1,0.2,0.2,0.2,0.3c0.3,0.4,0.4,0.5,0.5,0.5c0,0-0.1-0.2-0.3-0.6c-0.1-0.1-0.1-0.2-0.2-0.3c0-0.1-0.1-0.1-0.1-0.2
		c0,0,0-0.1-0.1-0.1L19,11.9c0,0-0.1,0-0.2,0h-0.1c-0.1,0-0.2,0-0.3,0c-0.2,0-0.4,0-0.6,0c-0.1,0-0.2,0-0.3,0h-0.1l0,0l0,0l0,0l0,0
		l0,0c0.1-0.1,0.1-0.2,0.2-0.3c0.1-0.2,0.3-0.4,0.5-0.6l0.1-0.1l0.1-0.1c0,0,0.1-0.1,0.1-0.2c0-0.1,0-0.1,0-0.2v-0.1l0,0L18,9.8
		c-0.1-0.3-0.2-0.5-0.2-0.8l-0.1-0.2V8.7l0,0l0,0C18,8.8,18.2,8.9,18.5,9c0.1,0,0.3,0.1,0.4,0.1H19h0.1c0.1,0,0.1,0,0.2,0
		c0,0,0.1,0,0.1-0.1l0,0l0.1-0.1c0.2-0.2,0.5-0.4,0.7-0.5l0.2-0.1l0,0l0,0l0,0l0,0l0,0l0,0c0,0.3,0,0.6,0,0.9c0,0.1,0,0.3,0,0.4v0.1
		c0,0.1,0,0.1,0,0.2c0,0.1,0.2,0.2,0.2,0.2c0.2,0.2,0.4,0.3,0.6,0.4c0.1,0.1,0.2,0.1,0.3,0.2l0.1,0.1l0,0v0.1
		c-0.1,0-0.2,0.1-0.3,0.1c-0.2,0.1-0.4,0.1-0.6,0.2c-0.1,0-0.2,0.1-0.3,0.1h-0.1c-0.1,0-0.1,0.1-0.2,0.1c0,0.1-0.1,0.1-0.1,0.2v0.1
		c0,0.1,0,0.2-0.1,0.2c-0.1,0.3-0.2,0.6-0.2,0.8c0,0.1,0,0.1,0,0.1v0.1c0,0-0.1,0.1-0.2,0.1s-0.1-0.1-0.2-0.1c0,0,0,0.1,0.1,0.1
		s0.2,0,0.3,0l0.1-0.1c0,0,0-0.1,0.1-0.1c0.1-0.2,0.2-0.5,0.3-0.8c0-0.1,0.1-0.2,0.1-0.2c0-0.1,0.1-0.2,0.1-0.2l0,0h0.1
		c0.1,0,0.2-0.1,0.3-0.1c0.2-0.1,0.4-0.1,0.6-0.2c0.1,0,0.2-0.1,0.3-0.1c0.2-0.1,0.3-0.3,0.3-0.5C22.2,10.7,22.2,10.6,22.1,10.5
		L22.1,10.5z"/>
	<path d="M15.2,15.3c0.4-0.5,0.7-0.9,1-1.2c0.6-0.7,1.1-1,1-1.1c0,0-0.6,0.2-1.3,0.9c-0.4,0.3-0.7,0.7-1.1,1.2s-0.8,1.1-1.1,1.7
		c-0.3,0.6-0.6,1.3-0.8,1.9c-0.2,0.6-0.3,1.2-0.3,1.6c-0.1,0.9,0,1.5,0,1.5c0.1,0,0.1-0.6,0.3-1.5c0.1-0.4,0.2-1,0.4-1.5
		c0.2-0.6,0.4-1.2,0.8-1.8C14.5,16.4,14.9,15.8,15.2,15.3L15.2,15.3z"/>
	<path d="M19.5,15.9c-0.4,0.2-1,0.4-1.5,0.7c-0.5,0.3-1.1,0.7-1.6,1.2s-1,1-1.4,1.5s-0.7,1-0.9,1.4c-0.4,0.8-0.6,1.4-0.5,1.4
		s0.3-0.5,0.8-1.3c0.2-0.4,0.6-0.8,0.9-1.3c0.4-0.5,0.8-1,1.3-1.4c0.5-0.5,1.1-0.9,1.6-1.2c0.5-0.3,1-0.6,1.4-0.8
		c0.8-0.4,1.4-0.6,1.4-0.7C21,15.5,20.4,15.6,19.5,15.9z"/>
	<path d="M10.4,8.3c-0.2,0.4-0.4,1-0.6,1.6s-0.3,1.3-0.3,2s0,1.4,0.1,2s0.2,1.2,0.4,1.6c0.3,0.9,0.6,1.4,0.6,1.4
		c0.1,0-0.1-0.6-0.3-1.5c-0.1-0.4-0.2-1-0.2-1.6s-0.1-1.3,0-2c0-0.7,0.1-1.4,0.3-1.9c0.1-0.6,0.3-1.1,0.4-1.5
		C11.1,7.5,11.4,7,11.3,7C11.2,6.9,10.8,7.4,10.4,8.3L10.4,8.3z"/>
	<path d="M13.7,10.2c0.3-0.5,0.7-0.9,1-1.3c0.6-0.7,1-1.1,1-1.2c0,0-0.5,0.3-1.2,0.9c-0.3,0.3-0.7,0.8-1.1,1.3s-0.7,1.1-1,1.8
		s-0.5,1.3-0.6,1.9c-0.1,0.6-0.2,1.2-0.2,1.6c0,0.9,0.1,1.5,0.1,1.5c0.1,0,0.1-0.6,0.2-1.5c0.1-0.5,0.2-1,0.3-1.6
		c0.2-0.6,0.4-1.2,0.6-1.8C13.1,11.3,13.4,10.8,13.7,10.2L13.7,10.2z"/>
	<path d="M8.6,16.2c-0.7-1.1-1.5-2.1-2.2-2.7c-0.6-0.6-1.1-0.9-1.1-0.9c-0.1,0.1,1.5,1.5,2.9,3.8c1.4,2.2,2.1,4.3,2.2,4.3
		s0-0.6-0.3-1.4C9.8,18.5,9.3,17.4,8.6,16.2z"/>
	<path d="M7,17.4c-0.9-1-1.9-1.7-2.7-2.2C3.5,14.7,3,14.5,3,14.6c-0.1,0.1,1.8,1.2,3.7,3.1c1.9,1.9,2.9,3.8,3,3.7
		c0.1,0-0.1-0.5-0.6-1.3C8.6,19.3,7.9,18.3,7,17.4L7,17.4z"/>
	<path d="M6.4,6.8c0.2,0,0.4-0.1,0.5-0.2s0.2-0.3,0.3-0.4c0.1-0.3,0-0.6-0.2-0.8C6.8,5.2,6.6,5.2,6.5,5.2S6.3,5.3,6.3,5.3
		s0.1,0.1,0.2,0.1s0.2,0.1,0.3,0.2c0.1,0.1,0.1,0.3,0,0.4C6.7,6.2,6.6,6.3,6.4,6.3C6.2,6.3,6,6.2,5.9,6.1s-0.1-0.3,0-0.4
		C6,5.5,6.3,5.4,6.3,5.3c0,0-0.1-0.1-0.2,0C6,5.3,5.8,5.4,5.6,5.5C5.4,5.7,5.4,6,5.5,6.3C5.7,6.6,6,6.9,6.4,6.8L6.4,6.8z"/>
	<path d="M6.9,20.6c-0.2-0.2-0.4-0.2-0.5-0.2s-0.2,0.1-0.2,0.1s0.1,0.1,0.2,0.1s0.2,0.1,0.3,0.2c0.1,0.1,0.1,0.3,0,0.4
		c-0.1,0.2-0.2,0.3-0.4,0.3c-0.2,0-0.4-0.1-0.5-0.2s-0.1-0.3,0-0.4c0.1-0.2,0.4-0.3,0.4-0.4c0,0-0.1-0.1-0.2,0
		c-0.1,0-0.3,0.1-0.5,0.2c-0.2,0.2-0.2,0.5-0.1,0.8S5.9,22,6.3,22c0.2,0,0.4-0.1,0.5-0.2s0.2-0.3,0.3-0.4
		C7.2,21.1,7.1,20.8,6.9,20.6L6.9,20.6z"/>
	<path d="M15.6,11.3c-0.2-0.2-0.4-0.2-0.5-0.2s-0.2,0.1-0.2,0.1s0.1,0.1,0.2,0.1s0.2,0.1,0.3,0.2c0.1,0.1,0.1,0.3,0,0.4
		c-0.1,0.2-0.2,0.3-0.4,0.3c-0.2,0-0.4-0.1-0.5-0.2c-0.1-0.1-0.1-0.3,0-0.4c0.1-0.2,0.4-0.3,0.4-0.4c0,0-0.1-0.1-0.2,0
		c-0.1,0-0.3,0.1-0.5,0.2c-0.2,0.2-0.2,0.5-0.1,0.8s0.5,0.5,0.9,0.5c0.2,0,0.4-0.1,0.5-0.2c0.1-0.1,0.2-0.3,0.3-0.4
		C15.9,11.8,15.8,11.5,15.6,11.3L15.6,11.3z"/>
	<path d="M19.2,4.7c0.2,0,0.4-0.1,0.5-0.2s0.2-0.3,0.3-0.4c0.1-0.3,0-0.6-0.2-0.8s-0.4-0.2-0.5-0.2s-0.2,0.1-0.2,0.1
		s0.1,0.1,0.2,0.1s0.2,0.1,0.3,0.2c0.1,0.1,0.1,0.3,0,0.4c-0.1,0.2-0.2,0.3-0.4,0.3c-0.2,0-0.4-0.1-0.5-0.2c-0.1-0.1-0.1-0.3,0-0.4
		c0.1-0.2,0.4-0.3,0.4-0.4c0,0-0.1-0.1-0.2,0c-0.1,0-0.3,0.1-0.5,0.2c-0.2,0.2-0.2,0.5-0.1,0.8C18.5,4.5,18.8,4.7,19.2,4.7L19.2,4.7
		z"/>
	<path d="M8,4.1C8.6,4.5,9,5,9,4.9c0,0-0.3-0.6-0.9-1C7.6,3.4,7,3.3,7,3.3C6.9,3.4,7.5,3.6,8,4.1z"/>
	<path d="M9.5,4.4c0.1,0-0.1-0.5-0.4-0.9C8.7,3.1,8.3,2.9,8.3,2.9c0,0.1,0.3,0.3,0.6,0.7C9.3,4.1,9.5,4.5,9.5,4.4z"/>
	<path d="M18.7,6.5c0.1,0.2,0.6,0.1,1.1-0.1s1-0.4,0.9-0.6c0-0.2-0.5-0.3-1.2-0.1C19,5.9,18.6,6.3,18.7,6.5z"/>
	<path d="M20.4,6.8C20.2,6.8,20,6.9,20,7c0,0.2,0.5,0.3,1,0.5s1,0.5,1.1,0.3c0.1-0.1,0-0.2-0.1-0.4c-0.1-0.2-0.4-0.4-0.7-0.5
		C21,6.8,20.7,6.8,20.4,6.8L20.4,6.8z"/>
</g>
</svg>
