<?xml version="1.0" encoding="utf-8"?>
<!-- Generator: Adobe Illustrator 27.5.0, SVG Export Plug-In . SVG Version: 6.00 Build 0)  -->
<svg version="1.1" id="Layer_1" xmlns="http://www.w3.org/2000/svg" xmlns:xlink="http://www.w3.org/1999/xlink" x="0px" y="0px"
	 viewBox="0 0 24 24" style="enable-background:new 0 0 24 24;" xml:space="preserve">
<g>
	<g>
		<g>
			<path d="M22.8,2.8c-0.9-0.9-2.2-0.1-2.9,0.7c-0.1,0.1-0.2,0.2-0.2,0.3c-0.2,0.3-0.4,0.6-0.6,0.9c-0.1,0.2-0.2,0.4-0.3,0.6
				c-0.2,0.2-0.3,0.5-0.5,0.8c-0.1,0.2-0.3,0.4-0.4,0.6c0-0.2,0-0.3,0-0.5c0-0.3,0.1-0.7,0.1-1c0-0.7-0.1-1.3-0.2-1.9
				c0-0.5,0-1,0-1.6c0-0.3,0-0.7-0.3-0.9c-0.4-0.2-1-0.1-1.4-0.1c-0.7,0-1.3,0-2,0c-1.3,0-2.6,0-3.9,0.1C8.9,0.9,7.6,1,6.4,1
				C5.8,1,5.3,1,4.7,1c-0.6,0-1.3,0-2,0c-0.4,0-1,0.1-1.3,0.3C1.1,1.6,1.2,2.1,1.2,2.4c0,1.3,0,2.6,0,3.9c0,2.7,0,5.5,0,8.2
				c0,0.6,0,1.2,0,1.8c0,0.7,0,1.3,0,2c0,0.6,0,1.3,0,1.9c0,0.3,0,0.7,0,1s-0.1,0.7,0,1c0.1,1,1.1,0.9,1.9,0.9
				c1.2,0,2.4,0.1,3.5,0.1c1.2,0,2.3,0.1,3.5,0.2c0.6,0,1.2,0.1,1.7,0c0.7,0,1.3-0.1,2-0.1c0.6,0,1.1,0,1.7,0c0.5,0,0.7-0.1,1.1-0.5
				c0.4-0.5,0.8-1,1.3-1.5c0.4-0.4,0.6-0.5,0.7-1.1c0.1-1.2,0-2.5-0.1-3.7c0-0.8,0-1.6,0-2.5c0-0.7,0-1.4-0.1-2.1c0-0.1,0-0.1,0-0.2
				c0-0.3,0.3-0.6,0.5-0.9c1.4-2,3-4,3.9-6.3C23.1,4.1,23.4,3.3,22.8,2.8z M18.5,6.8c0.3-0.5,0.7-1,1-1.5c0.1,0,0.3,0.2,0.4,0.2
				c0.2,0.1,0.3,0.2,0.5,0.3c-0.3,0.4-0.6,1-0.9,1.4c-0.5,0.6-1,1.2-1.4,1.9c-0.9,1.2-1.6,2.4-2.4,3.7c0-0.2-0.1-0.3-0.3-0.4
				c-0.1-0.1-0.2-0.1-0.4-0.1c0.3-0.5,0.6-1,0.9-1.5c0.5-0.7,1-1.4,1.5-2.1C17.7,8,18.1,7.4,18.5,6.8z M14.7,14.3
				c-0.1-0.1-0.2-0.1-0.3-0.1h-0.1c0-0.1,0-0.2,0-0.2c0.1-0.3,0-0.7,0.2-1c0.1-0.1,0.3-0.3,0.4-0.2c0.3,0,0.3,0.3,0.3,0.5
				s0.2,0.3,0.3,0.2c0.1,0,0.1-0.1,0.2-0.1s0.5,0.4,0.4,0.5c-0.3,0.3-0.7,0.5-1,0.7C15,14.5,14.9,14.4,14.7,14.3z M14.8,14.9
				c-0.1,0.1-0.2,0.2-0.3,0.2c-0.1,0-0.2,0.1-0.3,0.2l-0.1,0.1c0-0.2,0.1-0.5,0.1-0.7c0-0.1,0-0.1,0-0.2c0.1,0,0.1,0,0.2,0
				c0.1,0.1,0.2,0.1,0.3,0.2C14.7,14.8,14.8,14.8,14.8,14.9z M18,20.2c0,0.3-0.1,0.4-0.3,0.6c-0.2,0.2-0.4,0.4-0.6,0.6
				c-0.3,0.4-0.6,0.8-1,1.2c-0.3,0.3-0.6,0.2-1,0.2c-1,0-2,0.1-3.1,0.2c-1.1,0-2.2-0.1-3.3-0.1c-2-0.1-4.1,0-6.1-0.1
				c-0.2,0-0.7,0-0.8-0.2c-0.1-0.1,0-0.5,0-0.7c0-0.6,0-1.2,0-1.7c0-1.1,0.1-2.3,0-3.5c-0.1-2.3,0-4.7,0-7.1s0-4.7,0-7.1
				c0-0.4,0.1-0.6,0.5-0.6c0.3,0,0.5-0.1,0.8-0.1c0.6,0,1.2,0,1.8,0C6,1.8,7,1.7,8.1,1.7c2.6-0.1,5.2-0.2,7.8-0.2c0.3,0,0.6,0,0.9,0
				s0.6-0.1,0.6,0.3c0,0.6-0.1,1.1,0,1.7c0,0.6,0.1,1.2,0.2,1.8c0,0.1,0,0.3,0,0.4c0,0.6,0,1.2,0.1,1.8c-0.2,0.3-0.5,0.6-0.7,1
				c-0.5,0.7-1,1.4-1.5,2.1c-0.2,0.3-0.4,0.7-0.6,1s-0.4,0.6-0.6,0.9c-0.3,0.6-0.4,1.4-0.5,2.1c-0.1,0.4-0.3,1.3,0.1,1.5
				c0.4,0.2,1-0.5,1.3-0.6c0.4-0.3,0.8-0.6,1.2-0.9c0.5-0.4,0.9-0.8,1.3-1.3c0.1-0.2,0.2-0.3,0.4-0.5l0,0c0,0.3,0,0.6,0,0.9
				c0,0.8-0.1,1.6-0.1,2.4c0,1,0.1,2.1,0.1,3.1C18.1,19.4,18.1,19.8,18,20.2z M20.3,8.2c-0.7,1-1.4,2-2.1,3.1
				c-0.3,0.5-0.6,1.1-1,1.5c-0.2,0.2-0.4,0.6-0.7,0.9c0-0.3-0.1-0.5-0.3-0.7c-0.1-0.1-0.2-0.1-0.3-0.1c0.1-0.2,0.2-0.4,0.3-0.5
				c0.2-0.3,0.4-0.6,0.6-0.9c0.4-0.7,0.8-1.3,1.3-2c0.8-1.2,1.8-2.3,2.4-3.5c0.3,0.2,0.6,0.5,0.7,0.8l0,0C21,7.2,20.6,7.7,20.3,8.2z
				 M21.5,6.3c-0.2-0.3-0.6-0.6-0.9-0.8C20.4,5.4,20,5,19.6,5c0,0,0.2-0.5,0.3-0.5c0.2-0.2,0.3-0.1,0.5,0c0.4,0.2,0.7,0.5,1.1,0.8
				C21.9,5.7,21.7,5.9,21.5,6.3z M22.1,5.1c0,0.1-0.1,0.2-0.1,0.3c-0.1-0.1-0.1-0.3-0.2-0.4c-0.3-0.4-1-1-1.5-1.1
				c0.1-0.1,0.2-0.3,0.3-0.4c0.4-0.4,1.2-0.7,1.8-0.3C22.9,3.6,22.4,4.6,22.1,5.1z"/>
		</g>
	</g>
	<g>
		<g>
			<path d="M7,4.5c-0.5,0.2-0.8,0.6-1.1,1C5.8,5.6,5.8,5.6,5.7,5.7c0-0.2-0.1-0.4-0.1-0.6c0-0.4,0-0.6-0.4-0.7
				c-0.5-0.1-1.5,0-1.9,0.2C2.9,4.9,2.9,5.4,2.9,5.8c0,0.4,0,0.8,0,1.2c0,0.2,0,0.4,0.1,0.5C3.4,8,4.6,7.8,5.1,7.6
				c0.5-0.2,0.6-0.7,0.6-1.2C5.9,6.2,6,6.1,6.1,5.9C6.4,5.5,6.9,5.1,7,4.5C7.3,4.6,7.2,4.5,7,4.5z M5.4,7.2C5.2,7.5,4.9,7.5,4.6,7.5
				c-0.2,0-1,0.2-1.2-0.1c0-0.1,0-0.4,0-0.5c0-0.3,0-0.5,0-0.8c0-0.5-0.2-1.1,0.4-1.2c0.4-0.1,0.9-0.1,1.3-0.2
				c0.2,0,0.2,0.1,0.3,0.3c0.1,0.3,0.1,0.7,0.1,1.1C5.4,6.2,5.3,6.4,5.2,6.5C4.9,6.2,4.6,5.9,4.3,5.7l0,0C4.1,5.6,3.9,5.8,4,6
				c0.3,0.3,0.5,0.6,0.8,0.9C5,7.1,5.2,7.2,5.5,7c0,0,0,0,0.1-0.1C5.4,7,5.4,7.1,5.4,7.2z"/>
		</g>
	</g>
	<g>
		<g>
			<path d="M7.4,8.5C6.8,8.8,6.3,9.4,5.8,10c0-0.2-0.1-0.5-0.1-0.7c0-0.4,0-0.6-0.4-0.7c-0.5-0.1-1.5,0-1.9,0.2C3,9.1,3,9.6,3,10
				s0,0.8,0,1.2c0,0.2,0,0.4,0.1,0.5c0.4,0.5,1.6,0.3,2.1,0.1s0.6-0.6,0.6-1.2c0.2-0.2,0.4-0.5,0.6-0.7c0.4-0.4,0.9-0.8,1.1-1.3
				C7.7,8.6,7.6,8.5,7.4,8.5z M5.4,11.3c-0.2,0.3-0.5,0.3-0.8,0.3c-0.2,0-1,0.2-1.2-0.1c0-0.1,0-0.4,0-0.5c0-0.3,0-0.5,0-0.8
				c0-0.5-0.2-1.1,0.4-1.2c0.4-0.1,0.9-0.1,1.3-0.2c0.2,0,0.2,0.1,0.3,0.3c0.1,0.3,0.1,0.8,0.1,1.2c-0.1,0.1-0.2,0.2-0.2,0.2
				c-0.2,0-0.3-0.2-0.4-0.3C4.7,10,4.7,9.8,4.4,9.7C4.2,9.6,4,9.9,4.2,10c0.4,0.3,0.7,1.4,1.4,1C5.4,11.2,5.4,11.3,5.4,11.3z"/>
		</g>
	</g>
	<g>
		<g>
			<path d="M5.7,13.5c0-0.4,0-0.6-0.4-0.7c-0.5-0.1-1.5,0-1.9,0.2C3,13.3,3,13.8,3,14.2s0,0.8,0,1.2c0,0.2,0,0.4,0.1,0.5
				c0.4,0.5,1.6,0.3,2.1,0.1C6.2,15.7,5.8,14.3,5.7,13.5z M5.4,15.5c-0.2,0.3-0.5,0.3-0.8,0.3c-0.2,0-1,0.2-1.2-0.1
				c0-0.1,0-0.4,0-0.5c0-0.3,0-0.5,0-0.8c0-0.5-0.2-1.1,0.4-1.2c0.4-0.1,0.9-0.1,1.3-0.2c0.2,0,0.2,0.1,0.3,0.3
				c0.1,0.4,0.1,1,0.1,1.4C5.4,14.9,5.5,15.3,5.4,15.5z"/>
		</g>
	</g>
	<g>
		<g>
			<path d="M5.7,17.7c0-0.4,0-0.6-0.4-0.7c-0.5-0.1-1.5,0-1.9,0.2C3,17.5,3,18,3,18.4c0,0.4,0,0.8,0,1.2c0,0.2,0,0.4,0.1,0.5
				c0.4,0.5,1.6,0.3,2.1,0.1C6.2,19.9,5.8,18.4,5.7,17.7z M5.4,19.7C5.2,20,4.9,20,4.6,20c-0.2,0-1,0.2-1.2-0.1c0-0.1,0-0.4,0-0.5
				c0-0.3,0-0.5,0-0.8c0-0.5-0.2-1.1,0.4-1.2c0.4-0.1,0.9-0.1,1.3-0.2c0.2,0,0.2,0.1,0.3,0.3c0.1,0.4,0.1,1,0.1,1.4
				C5.5,19.1,5.5,19.5,5.4,19.7z"/>
		</g>
	</g>
	<g>
		<g>
			<path d="M15.3,4.9c-0.6-0.1-1.2,0-1.8-0.1c-0.6,0-1.2,0-1.8,0C10.5,4.9,9.2,4.7,8,4.9c-0.1,0-0.1,0.2,0,0.2
				c1.2,0.1,2.5,0.1,3.7,0.1C12.9,5.1,14.2,5.3,15.3,4.9C15.4,5,15.4,4.9,15.3,4.9z"/>
		</g>
	</g>
	<g>
		<g>
			<path d="M15.3,5.7c-0.6-0.1-1.2,0-1.8-0.1c-0.6,0-1.2,0-1.8,0C10.5,5.7,9.2,5.5,8,5.7c-0.1,0-0.1,0.2,0,0.2
				c1.2,0.2,2.5,0.2,3.7,0.1s2.5,0.1,3.6-0.2C15.4,5.8,15.4,5.7,15.3,5.7z"/>
		</g>
	</g>
	<g>
		<g>
			<path d="M15.3,6.5c-0.6-0.1-1.2,0-1.8-0.1c-0.6,0-1.2,0-1.8,0C10.5,6.5,9.2,6.3,8,6.5c-0.1,0-0.1,0.2,0,0.2
				c1.2,0.1,2.5,0.1,3.7,0.1C12.9,6.7,14.2,6.9,15.3,6.5C15.4,6.6,15.4,6.5,15.3,6.5z"/>
		</g>
	</g>
	<g>
		<g>
			<path d="M14.8,9.2c-0.5-0.1-1.1-0.1-1.6-0.1c-0.6,0-1.2,0-1.7,0C10.3,9.2,9.2,9,8,9.2c-0.1,0-0.1,0.2,0,0.2
				c1.1,0.1,2.4,0.1,3.5,0.1c1.1-0.1,2.3,0.1,3.4-0.2C14.9,9.3,14.9,9.2,14.8,9.2z"/>
		</g>
	</g>
	<g>
		<g>
			<path d="M14.8,10c-0.5-0.1-1.1,0-1.6-0.1c-0.6,0-1.2,0-1.7,0C10.3,10,9.2,9.8,8,10c-0.1,0-0.1,0.2,0,0.2c1.1,0.1,2.4,0.1,3.5,0.1
				c1.1-0.1,2.3,0.1,3.4-0.2C14.9,10.1,14.9,10,14.8,10z"/>
		</g>
	</g>
	<g>
		<g>
			<path d="M14.8,10.8c-0.5-0.1-1.1,0-1.6-0.1c-0.6,0-1.2,0-1.7,0c-1.2,0.1-2.3-0.1-3.5,0.1c-0.1,0-0.1,0.2,0,0.2
				c1.1,0.1,2.4,0.1,3.5,0.1c1.1-0.1,2.3,0.1,3.4-0.2C14.9,10.9,14.9,10.8,14.8,10.8z"/>
		</g>
	</g>
	<g>
		<g>
			<path d="M12.7,13.8c-0.4-0.1-0.8,0-1.1-0.1c-0.4,0-0.8,0-1.2,0c-0.8,0.1-1.6-0.1-2.4,0.1c-0.1,0-0.1,0.2,0,0.2
				c0.8,0.1,1.6,0.1,2.4,0.1c0.8-0.1,1.6,0.1,2.3-0.2C12.8,13.9,12.8,13.8,12.7,13.8z"/>
		</g>
	</g>
	<g>
		<g>
			<path d="M12.7,14.6c-0.4-0.1-0.8,0-1.1-0.1c-0.4,0-0.8,0-1.2,0c-0.8,0.1-1.6-0.1-2.4,0.1c-0.1,0-0.1,0.2,0,0.2
				c0.8,0.1,1.6,0.1,2.4,0.1c0.8-0.1,1.6,0.1,2.3-0.2C12.8,14.7,12.8,14.6,12.7,14.6z"/>
		</g>
	</g>
	<g>
		<g>
			<path d="M12.7,15.4c-0.4-0.1-0.8,0-1.1-0.1c-0.4,0-0.8,0-1.2,0c-0.8,0.1-1.6-0.1-2.4,0.1c-0.1,0-0.1,0.2,0,0.2
				c0.8,0.1,1.6,0.1,2.4,0.1c0.8-0.1,1.6,0.1,2.3-0.2C12.8,15.5,12.8,15.4,12.7,15.4z"/>
		</g>
	</g>
	<g>
		<g>
			<path d="M12.8,17.7c-0.4-0.1-0.8,0-1.1-0.1c-0.4,0-0.8,0-1.2,0c-0.8,0.1-1.6-0.1-2.4,0.1c-0.1,0-0.1,0.2,0,0.2
				C8.9,18,9.7,18,10.5,18c0.8-0.1,1.6,0.1,2.3-0.2C12.8,17.8,12.8,17.7,12.8,17.7z"/>
		</g>
	</g>
	<g>
		<g>
			<path d="M12.8,18.5c-0.4-0.1-0.8,0-1.1-0.1c-0.4,0-0.8,0-1.2,0c-0.8,0.1-1.6-0.1-2.4,0.1c-0.1,0-0.1,0.2,0,0.2
				c0.8,0.1,1.6,0.1,2.4,0.1c0.8-0.1,1.6,0.1,2.3-0.2C12.8,18.6,12.8,18.5,12.8,18.5z"/>
		</g>
	</g>
	<g>
		<g>
			<path d="M12.8,19.3c-0.4-0.1-0.8,0-1.1-0.1c-0.4,0-0.8,0-1.2,0c-0.8,0.1-1.6-0.1-2.4,0.1c-0.1,0-0.1,0.2,0,0.2
				c0.8,0.1,1.6,0.1,2.4,0.1c0.8-0.1,1.6,0.1,2.3-0.2C12.8,19.4,12.8,19.3,12.8,19.3z"/>
		</g>
	</g>
</g>
</svg>
