<?xml version="1.0" encoding="utf-8"?>
<!-- Generator: Adobe Illustrator 27.5.0, SVG Export Plug-In . SVG Version: 6.00 Build 0)  -->
<svg version="1.1" id="Layer_1" xmlns="http://www.w3.org/2000/svg" xmlns:xlink="http://www.w3.org/1999/xlink" x="0px" y="0px"
	 viewBox="0 0 24 24" style="enable-background:new 0 0 24 24;" xml:space="preserve">
<style type="text/css">
	.st0{stroke:#000000;stroke-width:0.25;stroke-miterlimit:10;}
</style>
<g>
	<g>
		<g>
			<path class="st0" d="M15,1.1c0,0-0.2,0-0.6-0.1c-0.4-0.1-0.9-0.2-1.6-0.2c-0.1,0-0.1,0-0.2,0c-0.1,0-0.1,0-0.2,0
				c-0.1,0-0.3,0-0.4,0c-0.1,0-0.3,0-0.4,0c-0.1,0-0.3,0-0.4,0c-0.1,0-0.2,0-0.2,0c-0.1,0-0.2,0-0.2,0c-0.2,0-0.3,0.1-0.5,0.1
				C10.1,1,10,1,9.9,1C9.9,1,9.8,1,9.7,1c-0.1,0-0.2,0-0.3,0.1c-0.1,0-0.2,0.1-0.3,0.1c-0.1,0-0.2,0-0.3,0.1c-0.1,0-0.2,0.1-0.3,0.1
				C8.4,1.4,8.3,1.5,8.1,1.6c0,0-0.1,0-0.1,0.1c0,0-0.1,0-0.1,0.1c-0.1,0-0.2,0.1-0.3,0.1l-0.1,0c0,0,0,0-0.1,0c0,0-0.1,0-0.1,0.1
				C7.1,1.9,7,2,7,2.1C6.6,2.3,6.2,2.5,5.8,2.7c-0.1,0-0.1,0.1-0.2,0.1l-0.1,0c0,0,0,0-0.1,0C5.4,3,5.4,3.1,5.3,3.1
				C5.2,3.2,5.1,3.3,5,3.4c0,0-0.1,0.1-0.1,0.1c0,0-0.1,0.1-0.1,0.1C4.6,3.7,4.5,3.7,4.4,3.8L4.4,3.9c0,0,0,0-0.1,0.1
				c0,0-0.1,0.1-0.1,0.1c0,0-0.1,0.1-0.1,0.1c0,0,0,0-0.1,0.1L3.9,4.3C3.8,4.4,3.8,4.5,3.7,4.6C3.6,4.7,3.5,4.8,3.4,4.9
				c0,0-0.1,0.1-0.1,0.1c0,0-0.1,0.1-0.1,0.2C3.1,5.3,3,5.4,2.9,5.5C2.9,5.6,2.8,5.8,2.8,5.9C2.7,6,2.6,6.1,2.6,6.2
				C2.5,6.3,2.4,6.4,2.3,6.6C2.3,6.7,2.2,6.8,2.2,6.9C2.1,7,2,7.2,2,7.3c0,0.1-0.1,0.1-0.1,0.2c0,0.1-0.1,0.1-0.1,0.2
				c0,0.1-0.1,0.1-0.1,0.2c0,0,0,0.1,0,0.1l0,0.1c0,0.1-0.1,0.3-0.1,0.4c0,0.1-0.1,0.3-0.1,0.4c0,0.1,0,0.1,0,0.2c0,0.1,0,0.1,0,0.2
				c0,0.1-0.1,0.3-0.1,0.4c0,0.1-0.1,0.3-0.1,0.4c0,0.1-0.1,0.3-0.1,0.4c0,0.6-0.1,1.2-0.1,1.8c0,0.2,0,0.3,0,0.5
				c0,0.2,0,0.3,0.1,0.5c0,0,0,0.1,0,0.1l0,0.1c0,0.1,0,0.2,0,0.2c0,0.1,0,0.2,0,0.2c0,0.1,0,0.2,0,0.2c0.1,0.6,0.3,1.2,0.6,1.8
				c0.2,0.6,0.5,1.2,0.9,1.7c0.4,0.5,0.8,1.1,1.2,1.6c0.5,0.4,1,0.9,1.5,1.4c0.6,0.4,1.1,0.8,1.8,1.1c0.6,0.3,1.3,0.5,2,0.7
				c0.7,0.2,1.4,0.3,2.1,0.4l0.1,0l0.1,0c0.1,0,0.2,0,0.3,0l0.1,0c0,0,0.1,0,0.1,0l0.3,0c0.2,0,0.3,0,0.5,0c0.1,0,0.2,0,0.3,0
				c0.1,0,0.2,0,0.3,0c0.1,0,0.2,0,0.3,0c0.1,0,0.2,0,0.3,0c0.1,0,0.2,0,0.3,0l0.2-0.1c0.1,0,0.2,0,0.2-0.1c0.1,0,0.2,0,0.2-0.1
				c0.1,0,0.2,0,0.2-0.1c0.1,0,0.2,0,0.2-0.1c0.6-0.2,1.3-0.4,1.8-0.8c0.6-0.3,1.1-0.7,1.6-1c0.2-0.2,0.5-0.4,0.7-0.6
				c0.1-0.1,0.2-0.2,0.4-0.3c0.1-0.1,0.1-0.1,0.2-0.2c0.1-0.1,0.1-0.1,0.2-0.2c0.1-0.1,0.1-0.1,0.2-0.2c0.1-0.1,0.1-0.1,0.2-0.2
				c0-0.1,0.1-0.1,0.1-0.2l0.1-0.1c0,0,0-0.1,0.1-0.1c0.1-0.1,0.2-0.3,0.3-0.4c0.1-0.1,0.2-0.3,0.3-0.4c0.2-0.3,0.3-0.5,0.5-0.8
				c0-0.1,0.1-0.1,0.1-0.2c0-0.1,0.1-0.1,0.1-0.2c0-0.1,0.1-0.1,0.1-0.2l0-0.1c0,0,0-0.1,0-0.1c0.1-0.1,0.1-0.3,0.2-0.4
				c0-0.1,0.1-0.3,0.1-0.4c0-0.1,0.1-0.3,0.1-0.4c0-0.1,0-0.1,0.1-0.2c0-0.1,0-0.1,0.1-0.2c0-0.1,0.1-0.3,0.1-0.4
				c0-0.1,0.1-0.3,0.1-0.4l0-0.1c0,0,0-0.1,0-0.1c0-0.1,0-0.1,0-0.2c0-0.1,0-0.1,0-0.2c0-0.1,0-0.1,0-0.2c0-0.1,0-0.3,0-0.4
				c0-0.1,0-0.3,0-0.4c0-0.1,0-0.3,0-0.4c0-0.1,0-0.3,0-0.4c0-0.1,0-0.3,0-0.4c0-0.1,0-0.3,0-0.4c0-0.1,0-0.1,0-0.2
				c0-0.1,0-0.1,0-0.2c0-0.1,0-0.2-0.1-0.4c0-0.1-0.1-0.2-0.1-0.4l0-0.1c0,0,0-0.1,0-0.1c0-0.1,0-0.1-0.1-0.2c0-0.1,0-0.1,0-0.2
				l0-0.1l0-0.1c0-0.1-0.1-0.2-0.1-0.4C22.4,8,22.2,7.5,22,7.1c0,0,0-0.1-0.1-0.2c0-0.1,0-0.1-0.1-0.2c0-0.1-0.1-0.2-0.1-0.3
				c0-0.1,0-0.1-0.1-0.1c0,0-0.1-0.1-0.1-0.1C21.5,6.1,21.4,6,21.4,6c-0.1-0.1-0.1-0.2-0.2-0.3c-0.1-0.1-0.1-0.2-0.2-0.3
				c-0.1-0.1-0.1-0.2-0.2-0.3c0,0-0.1-0.1-0.1-0.1c0,0-0.1-0.1-0.1-0.1c-0.2-0.1-0.3-0.3-0.4-0.4c-0.1-0.1-0.1-0.1-0.2-0.2
				C20,4.2,20,4.2,19.9,4.1C19.8,4,19.8,4,19.7,3.9c-0.1-0.1-0.1-0.1-0.2-0.2c-0.1-0.1-0.1-0.1-0.2-0.2c-0.1-0.1-0.1-0.1-0.2-0.2
				c-0.6-0.5-1.1-0.9-1.6-1.2c-0.1-0.1-0.3-0.1-0.4-0.2C17,2,17,1.9,16.9,1.9c-0.1,0-0.1-0.1-0.2-0.1c-0.2-0.1-0.4-0.2-0.6-0.3
				c-0.4-0.2-0.7-0.3-0.9-0.3C15.1,1.1,15,1.1,15,1.1c0,0,0.1,0,0.4,0.1c0.1,0,0.1,0,0.2,0.1c0.1,0,0.2,0.1,0.3,0.1
				c0.1,0,0.2,0.1,0.3,0.1c0.1,0,0.2,0.1,0.3,0.1c0.5,0.2,1,0.4,1.7,0.8c0.6,0.4,1.3,0.9,2,1.6C20.1,4,20.2,4,20.3,4.1
				c0.1,0.1,0.1,0.1,0.2,0.2c0.1,0.1,0.3,0.3,0.4,0.5c0,0,0.1,0.1,0.1,0.1C21,4.9,21,5,21.1,5c0.1,0.1,0.1,0.2,0.2,0.2
				c0.1,0.1,0.1,0.2,0.2,0.3c0.1,0.1,0.1,0.2,0.2,0.3c0.3,0.3,0.5,0.8,0.7,1.2c0.2,0.4,0.4,0.9,0.6,1.3c0,0.1,0.1,0.2,0.1,0.4l0,0.1
				c0,0,0,0.1,0,0.1c0,0.1,0,0.1,0,0.2c0,0.1,0,0.1,0,0.2l0,0.1l0,0.1c0,0.1,0.1,0.3,0.1,0.4c0,0.1,0,0.3,0,0.4c0,0.1,0,0.1,0,0.2
				c0,0.1,0,0.1,0,0.2c0,0.1,0,0.3,0.1,0.4c0,0.1,0,0.3,0.1,0.4c0,0.1,0,0.3,0,0.4c0,0.1,0,0.3,0,0.4c0,0.1,0,0.3,0,0.4
				c0,0.1,0,0.3,0,0.4c0,0.1,0,0.1,0,0.2c0,0.1,0,0.1,0,0.2c0,0.1,0,0.1,0,0.2c0,0,0,0.1,0,0.1l0,0.1c0,0.1,0,0.3-0.1,0.4
				c0,0.1-0.1,0.3-0.1,0.4c0,0.1,0,0.1,0,0.2c0,0.1,0,0.1-0.1,0.2c0,0.1-0.1,0.3-0.1,0.4c-0.1,0.1-0.1,0.3-0.2,0.4
				c-0.1,0.1-0.1,0.3-0.2,0.4c-0.3,0.6-0.5,1.1-0.9,1.7c-0.3,0.6-0.7,1.1-1.2,1.5c-0.4,0.5-0.9,0.9-1.5,1.3
				c-0.5,0.4-1.1,0.8-1.7,1.1c-0.3,0.2-0.6,0.3-0.9,0.4c-0.2,0.1-0.3,0.1-0.5,0.2c-0.2,0.1-0.3,0.1-0.5,0.2
				c-0.7,0.2-1.4,0.3-2.1,0.4c-0.7,0.1-1.4,0.1-2.2,0C10.5,23.2,9.7,23.1,9,23c-0.7-0.2-1.4-0.4-2.1-0.8c-0.7-0.3-1.3-0.7-1.8-1.1
				c-0.6-0.4-1.1-0.9-1.6-1.4c-0.1-0.1-0.2-0.3-0.4-0.4C3.1,19.1,3,19,2.9,18.8c-0.2-0.3-0.4-0.6-0.6-0.9c-0.4-0.6-0.7-1.2-0.9-1.8
				c-0.1-0.3-0.2-0.6-0.3-0.9C1,15.1,1,14.9,1,14.8c0-0.1,0-0.2-0.1-0.2c0-0.1,0-0.2-0.1-0.2c0-0.1,0-0.2-0.1-0.2
				c0-0.1,0-0.2-0.1-0.2c0-0.1,0-0.2-0.1-0.2l0-0.1c0,0,0-0.1,0-0.1c0-0.2,0-0.3-0.1-0.5c0-0.2,0-0.3,0-0.5c0-0.3,0-0.6,0-0.9
				c0-0.1,0-0.2,0-0.2c0-0.1,0-0.2,0-0.2c0-0.1,0-0.2,0-0.2l0-0.1l0-0.1c0-0.1,0.1-0.3,0.1-0.4c0-0.1,0.1-0.3,0.1-0.4
				c0-0.1,0.1-0.3,0.1-0.4c0-0.1,0-0.1,0-0.2C1,8.9,1,8.8,1,8.8c0-0.1,0.1-0.3,0.1-0.4c0.1-0.1,0.1-0.3,0.2-0.4l0-0.1
				c0,0,0-0.1,0-0.1c0-0.1,0.1-0.1,0.1-0.2c0-0.1,0.1-0.1,0.1-0.2c0-0.1,0.1-0.1,0.1-0.2C1.7,7,1.7,6.9,1.8,6.7
				C1.9,6.6,1.9,6.5,2,6.4C2.1,6.2,2.2,6.1,2.2,6c0.1-0.1,0.1-0.2,0.2-0.3c0.1-0.1,0.1-0.2,0.2-0.3C2.7,5.2,2.8,5.1,2.9,5
				C3,5,3,4.9,3,4.9c0,0,0.1-0.1,0.1-0.1c0.1-0.1,0.2-0.2,0.2-0.3c0.1-0.1,0.2-0.2,0.3-0.3L3.7,4c0,0,0,0,0.1-0.1
				c0,0,0.1-0.1,0.1-0.1c0,0,0.1-0.1,0.1-0.1c0,0,0,0,0.1-0.1l0.1-0.1c0.1-0.1,0.2-0.2,0.3-0.2c0-0.1,0.1-0.1,0.1-0.1
				c0,0,0.1-0.1,0.1-0.1C4.8,3,4.9,2.9,5,2.8c0.1-0.1,0.2-0.1,0.3-0.2l0.1,0l0.1,0c0.1,0,0.1-0.1,0.1-0.1C6,2.2,6.4,1.9,6.8,1.8
				C6.9,1.7,7,1.7,7.1,1.6c0,0,0.1,0,0.1-0.1c0,0,0,0,0.1,0l0.1,0c0.1,0,0.2-0.1,0.3-0.1c0,0,0.1,0,0.1,0c0,0,0.1,0,0.1,0
				c0.2-0.1,0.4-0.1,0.6-0.2C8.6,1.1,8.7,1,8.8,1c0.1,0,0.2,0,0.3-0.1c0.1,0,0.2-0.1,0.3-0.1c0.1,0,0.2,0,0.3,0c0.1,0,0.2,0,0.3,0
				c0.1,0,0.2,0,0.3,0c0.2,0,0.3,0,0.5-0.1c0.1,0,0.2,0,0.2,0c0.1,0,0.2,0,0.2,0c0.2,0,0.3,0,0.5,0c0.1,0,0.3,0,0.4,0
				c0.1,0,0.3,0,0.4,0c0.1,0,0.1,0,0.2,0c0.1,0,0.1,0,0.2,0c0.7,0.1,1.3,0.2,1.6,0.3C14.8,1,15,1.1,15,1.1z"/>
		</g>
		<g>
			<path class="st0" d="M12.8,8.2c0,0-0.2,0.3-0.5,0.7C12.2,8.9,12.1,9,12,9c-0.1,0.1-0.1,0.2-0.2,0.2c-0.1,0.1-0.1,0.2-0.3,0.3
				c-0.1,0.1-0.2,0.2-0.3,0.3C11.2,10,11.1,10,11,10.2c-0.1,0.2-0.3,0.2-0.3,0.3c-0.1,0.1-0.2,0.2-0.4,0.4c-0.2,0.1-0.3,0.3-0.4,0.4
				c0,0,0,0-0.1,0c0,0,0,0,0,0c0,0,0,0-0.1,0c0,0,0,0.1,0,0.1c0,0,0,0,0,0l0,0l0,0l0,0c0,0,0,0,0,0.1c0,0.2,0,0.4,0.2,0.6
				c0.1,0.2,0.1,0.4,0.2,0.6c0.1,0.2,0.1,0.4,0.2,0.6c0.1,0.2,0.2,0.4,0.2,0.7c0.1,0.2,0.2,0.4,0.2,0.7c0,0.2,0.2,0.4,0.2,0.7l0,0.1
				c0,0,0,0,0,0l0,0l0,0l0,0l0,0l0,0l0.1,0c0.1,0,0.2,0,0.3,0.1c0.2,0.1,0.5,0.2,0.7,0.2c0.3,0.1,0.5,0.1,0.8,0.2
				c0.3,0,0.5,0.1,0.8,0.2c0.3,0.1,0.5,0.2,0.8,0.2c0.1,0,0.3,0.1,0.4,0.1c0.1,0,0.1,0,0.2,0l0,0c0,0,0,0,0,0c0,0,0,0,0,0l0,0
				c0,0,0,0,0,0l0,0c0,0,0,0,0,0l0,0l0,0c0.1,0,0.1-0.1,0.2-0.1c0.1-0.1,0.2-0.2,0.3-0.3c0.2-0.2,0.4-0.4,0.6-0.6
				c0.2-0.1,0.4-0.4,0.6-0.6c0.2-0.2,0.4-0.3,0.6-0.5c0.2-0.2,0.3-0.4,0.5-0.5c0-0.1,0.1-0.2,0.2-0.2c0,0,0,0,0.1,0l0,0c0,0,0,0,0,0
				l0,0c0,0,0,0,0,0c0,0,0,0,0,0c0,0,0,0,0,0c0,0,0,0,0-0.1c0-0.2-0.1-0.5-0.2-0.7c-0.1-0.2-0.1-0.5-0.2-0.7
				c-0.1-0.2-0.1-0.4-0.2-0.7c-0.1-0.2-0.1-0.4-0.2-0.6c-0.1-0.2-0.1-0.4-0.2-0.6c0-0.2-0.1-0.4-0.1-0.6c0,0,0,0,0-0.1l0,0l0,0l0,0
				l0,0c0,0,0,0,0,0c0,0,0,0,0,0c0,0,0,0,0,0c0,0,0,0-0.1,0c-0.2-0.1-0.3-0.1-0.5-0.2c-0.2,0-0.3-0.2-0.5-0.1
				c-0.2,0-0.3-0.2-0.5-0.1c-0.2,0-0.3-0.1-0.4-0.1c-0.1,0-0.3-0.1-0.4-0.1C13.4,8.4,12.8,8.2,12.8,8.2c0,0,0.8,0.1,2.2,0.5
				c0.1,0,0.3,0,0.4,0.1c0.1,0,0.3,0,0.5,0.1c0.2,0,0.3,0.1,0.5,0.1c0.2,0,0.3,0.1,0.5,0.1c0,0,0,0,0.1,0c0,0,0,0,0.1,0
				c0.1,0,0.1,0,0.2,0.1c0,0.1,0,0.2,0.1,0.2l0,0l0,0c0,0,0,0,0,0.1c0,0.2,0.1,0.4,0.2,0.6c0,0.2,0.1,0.4,0.2,0.6
				c0,0.2,0.1,0.4,0.2,0.6c0.1,0.2,0.1,0.4,0.2,0.7c0,0.2,0.1,0.4,0.2,0.7c0.1,0.2,0.2,0.5,0.2,0.7l0,0l0,0.1c0,0.1,0,0.1,0.1,0.2
				c-0.1,0.1-0.1,0.1-0.2,0.2L18.3,14l0,0c-0.1,0.1-0.1,0.1-0.2,0.2c-0.2,0.2-0.4,0.4-0.5,0.5c-0.2,0.2-0.4,0.3-0.6,0.6
				c-0.2,0.2-0.4,0.4-0.6,0.6c-0.2,0.2-0.4,0.4-0.6,0.6c-0.1,0.1-0.2,0.2-0.3,0.3c0,0.1-0.1,0.1-0.1,0.2l0,0L15.3,17l-0.1,0.1l0,0
				c-0.1,0-0.1,0-0.2,0l-0.1,0c-0.1,0-0.1,0-0.2-0.1c-0.1,0-0.3-0.1-0.4-0.1c-0.3-0.1-0.5-0.1-0.8-0.2c-0.3,0-0.5-0.2-0.8-0.2
				c-0.3,0-0.5-0.2-0.8-0.2c-0.3,0-0.5-0.1-0.7-0.2C11.1,16,11,16,11,16l-0.1,0l0,0l0,0l0,0c-0.1,0-0.1,0-0.2-0.1
				c0-0.1,0-0.1-0.1-0.2c0,0,0-0.1,0-0.1c0,0,0,0,0,0c-0.1-0.2-0.2-0.4-0.2-0.7c-0.1-0.2-0.1-0.5-0.2-0.7c0-0.2-0.1-0.4-0.2-0.7
				c0-0.2-0.1-0.4-0.2-0.6c-0.1-0.2-0.1-0.4-0.2-0.6c-0.1-0.2,0-0.4-0.1-0.6c0,0,0-0.1,0-0.1c0,0,0-0.1,0-0.1c0-0.1,0-0.2-0.1-0.2
				c0.1-0.1,0.1-0.1,0.2-0.2l0,0l0,0c0,0,0,0,0.1,0c0.1-0.2,0.3-0.3,0.4-0.4c0.1-0.1,0.2-0.3,0.4-0.4c0.1-0.2,0.2-0.2,0.3-0.3
				c0.1-0.1,0.2-0.2,0.3-0.3c0.1-0.1,0.2-0.2,0.3-0.3c0.1-0.1,0.2-0.2,0.3-0.3C11.7,9,11.8,9,11.9,8.9c0.1-0.1,0.2-0.1,0.2-0.2
				C12.5,8.3,12.8,8.1,12.8,8.2z"/>
		</g>
		<g>
			<path class="st0" d="M15,1.1c0,0-0.1,0-0.2,0c-0.1,0-0.1,0-0.2,0c-0.1,0-0.2,0-0.3,0c-0.1,0-0.1,0-0.2,0c-0.1,0-0.2,0-0.3,0
				c-0.1-0.1-0.2,0-0.3,0c0,0-0.1,0-0.2,0c-0.1,0-0.1,0-0.2,0c-0.1,0-0.1,0-0.2,0l0,0l0,0c0,0,0,0,0,0c0,0,0,0,0,0c0,0,0,0,0,0
				c0,0,0,0,0,0c0,0,0,0,0,0l0,0c-0.1,0-0.1,0.1-0.1,0.1c0,0,0,0,0,0.1c0,0,0,0,0,0c0,0,0,0,0,0c0,0,0,0,0,0c0,0,0,0,0,0l0,0
				c0,0,0,0,0,0c0,0,0,0,0,0.1c0,0,0,0.1,0,0.1c0,0.1,0.1,0.1,0.1,0.2c0,0.2,0,0.3,0.1,0.4c-0.1,0.2,0,0.3,0.1,0.5
				C13,2.7,13,2.9,13.1,3c0,0.2,0.1,0.3,0.1,0.5c0.1,0.2,0.2,0.3,0.1,0.5c0.1,0.2,0.1,0.3,0.1,0.5c0,0.2,0.2,0.4,0.2,0.6
				c0,0,0,0.1,0,0.1c0,0,0,0,0,0c0,0,0,0,0,0l0.1,0l0.1,0c0.2,0.1,0.4,0.2,0.6,0.2c0.2,0,0.4,0.1,0.6,0.2c0.2,0,0.4,0.1,0.6,0.2
				C15.8,5.9,16,6,16.3,6c0.2,0.1,0.4,0.1,0.6,0.2c0.2,0.1,0.4,0.2,0.6,0.2c0.1,0,0.1,0,0.2,0l0,0l0,0l0,0l0,0l0,0c0,0,0,0,0,0
				c0,0,0,0,0,0c0,0,0,0,0,0l0,0c0,0,0,0,0,0c0.2-0.1,0.3-0.3,0.5-0.4c0.1-0.2,0.3-0.3,0.4-0.4c0.1-0.2,0.3-0.3,0.4-0.4
				c0.1-0.2,0.3-0.3,0.4-0.4c0.1-0.1,0.2-0.1,0.2-0.2c0,0,0.1-0.1,0.1-0.1c0,0,0,0,0,0l0,0c0,0,0,0,0,0c0,0,0,0,0,0c0,0,0,0,0,0
				c0,0,0,0,0,0c0,0,0,0,0,0c0,0,0,0,0,0c0,0-0.1,0-0.1-0.1c-0.1-0.1-0.3-0.2-0.4-0.4c-0.2-0.1-0.2-0.3-0.4-0.3
				c-0.1-0.1-0.1-0.1-0.2-0.2c-0.1-0.1-0.1-0.1-0.2-0.2c-0.1-0.2-0.2-0.2-0.4-0.3c-0.1,0-0.1-0.1-0.2-0.1c-0.1,0-0.1-0.1-0.2-0.1
				c-0.1-0.1-0.2-0.2-0.4-0.2c-0.1-0.1-0.2-0.2-0.3-0.2C17.1,2.1,17,2,16.9,2c-0.1,0-0.2-0.1-0.3-0.2c-0.1,0-0.1,0-0.1-0.1
				c0,0-0.1,0-0.1-0.1c-0.2-0.1-0.4-0.2-0.6-0.2c-0.2-0.1-0.3-0.1-0.4-0.2C15.1,1.2,15,1.1,15,1.1c0,0,0.2,0,0.5,0.1
				c0.3,0.1,0.7,0.2,1.3,0.4c0.1,0,0.2,0,0.3,0.1c0.1,0.1,0.2,0.1,0.3,0.2c0.2,0,0.2,0.1,0.4,0.2c0.1,0.1,0.2,0.2,0.4,0.2
				c0.1,0,0.1,0.1,0.2,0.1c0.1,0,0.1,0.1,0.2,0.1c0.1,0.1,0.2,0.2,0.4,0.3C19,2.9,19,2.9,19.1,3c0.1,0,0.1,0.1,0.2,0.1
				c0.1,0.2,0.3,0.2,0.4,0.3c0.2,0.1,0.3,0.3,0.4,0.4c0,0,0,0.1,0.1,0.1c0,0,0.1,0.1,0.1,0.1c0.1,0.1,0.2,0.2,0.3,0.3
				c-0.1,0.1-0.1,0.1-0.2,0.2l-0.1,0.1l-0.1,0.1c0,0-0.1,0.1-0.1,0.1C20.1,4.8,20,4.9,19.9,5c-0.1,0.2-0.3,0.3-0.4,0.4
				c-0.1,0.2-0.3,0.3-0.4,0.4c-0.1,0.2-0.3,0.2-0.4,0.4c-0.1,0.2-0.3,0.3-0.4,0.4l0,0l0,0l0,0C18,6.9,18,6.9,17.9,7
				c-0.1,0-0.1,0-0.2-0.1l-0.1,0l-0.1,0c-0.1,0-0.1,0-0.2,0c-0.2-0.1-0.4-0.1-0.6-0.2c-0.2,0-0.4-0.1-0.6-0.2
				c-0.2,0-0.4-0.1-0.6-0.2c-0.2,0-0.4-0.1-0.6-0.2c-0.2,0-0.4-0.1-0.6-0.2c-0.2,0-0.4-0.1-0.6-0.2c0,0,0,0-0.1,0l0,0l0,0l0,0
				c-0.1,0-0.2-0.1-0.2-0.1c0-0.1,0-0.2-0.1-0.3c0-0.1,0-0.1-0.1-0.1c-0.1-0.2-0.2-0.3-0.1-0.6c-0.1-0.2,0-0.4-0.1-0.5
				c0-0.2-0.1-0.4-0.1-0.5c0-0.2,0-0.4-0.1-0.5c-0.1-0.2-0.1-0.3-0.1-0.5c-0.1-0.1,0-0.3-0.1-0.5c0-0.2-0.1-0.3-0.1-0.4
				c-0.1-0.1-0.1-0.1-0.1-0.2c0,0,0-0.1,0-0.1c0,0,0,0,0-0.1c0,0,0,0,0,0l0,0c0,0,0,0,0,0c0-0.1,0-0.1-0.1-0.2
				c0-0.1,0.1-0.1,0.2-0.2c0,0,0,0,0,0c0,0,0,0,0,0c0,0,0,0,0.1,0c0-0.1,0.1-0.1,0.1-0.2l0,0c0,0,0,0,0,0l0,0l0.1,0c0,0,0,0,0.1,0
				l0,0c0,0,0,0,0,0l0,0l0,0c0,0,0.1,0,0.1,0l0,0l0,0l0,0l0,0c0.1,0,0.1,0,0.2,0c0.1,0,0.1,0,0.2,0c0.1,0,0.1,0,0.2,0
				c0.1,0.1,0.2,0,0.3,0.1c0.1,0,0.2,0,0.3,0.1c0.1,0,0.2,0,0.2,0.1c0.1,0,0.2,0.1,0.3,0.1C14.7,1,14.7,1,14.8,1
				C14.9,1,15,1.1,15,1.1z"/>
		</g>
		<g>
			<path class="st0" d="M21.9,6.6c0,0-0.1,0.2-0.3,0.4c0,0-0.1,0.1-0.1,0.1c0,0.1-0.1,0.1-0.1,0.2c-0.1,0-0.1,0.2-0.2,0.2
				c-0.1,0-0.1,0.1-0.2,0.2c-0.1,0.1-0.1,0.1-0.2,0.2c0,0.1-0.2,0.1-0.2,0.2c-0.1,0.1-0.1,0.2-0.2,0.2c-0.1,0-0.2,0.2-0.2,0.2
				c0,0-0.1,0-0.1,0c0,0,0,0,0,0c0,0,0,0,0,0c0,0,0,0,0,0.1c0,0,0,0,0,0c0,0,0,0,0,0c0,0,0,0.1,0,0.1C20,8.9,20,9,20.1,9
				c0,0.1,0,0.3,0.1,0.4c0,0.1,0.1,0.3,0.1,0.4c0.1,0.1,0.1,0.3,0.1,0.4c0.1,0.1,0.1,0.3,0.1,0.4c0,0.2,0.1,0.3,0.1,0.4
				c0,0.1,0.1,0.3,0.1,0.5c0,0.2,0,0.3,0.1,0.5c0.1,0.2,0.1,0.3,0.1,0.5c0.1,0.1,0.1,0.1,0.1,0.2c0,0,0,0,0,0.1c0,0,0,0,0,0
				c0,0,0,0,0,0c0,0,0,0,0,0l0,0c0,0,0,0,0,0l0,0l0,0l0.1,0c0.1,0,0.2,0.1,0.2,0.1C21.7,13,21.8,13,22,13c0.2,0.1,0.3,0.1,0.5,0.1
				c0.1,0,0.2,0,0.2,0.1c0,0,0.1,0,0.1,0c0,0,0,0,0,0l0,0c0,0,0,0,0,0c0,0,0,0,0,0c0,0,0,0,0,0c0,0,0,0,0,0c0,0,0,0,0,0l0,0
				c0,0,0,0,0-0.1l0,0l0,0l0,0c0,0,0,0,0-0.1c0,0,0-0.1,0-0.1c0-0.1,0-0.2,0-0.2c0-0.2,0-0.3,0-0.5c-0.1-0.2,0-0.3,0-0.5
				c0-0.2,0-0.3,0-0.4c0-0.1,0-0.3,0-0.4c0-0.1-0.1-0.3,0-0.4c-0.1-0.1,0-0.3,0-0.4c0-0.1,0-0.3-0.1-0.4c0.1-0.1,0-0.2-0.1-0.4
				c0-0.1-0.1-0.2-0.1-0.3c0-0.1,0-0.2-0.1-0.3c0-0.1,0.1-0.2-0.1-0.3c-0.1-0.1,0-0.2-0.1-0.3c-0.1-0.1-0.1-0.2-0.1-0.3
				c0-0.1-0.1-0.2-0.1-0.2c-0.1-0.3-0.2-0.6-0.3-0.8C21.9,6.7,21.9,6.6,21.9,6.6c0,0,0.1,0.1,0.2,0.3c0.1,0.2,0.3,0.5,0.5,0.9
				c0,0.1,0.1,0.2,0.1,0.3c0,0.1,0.1,0.2,0.1,0.3c0.1,0.1,0.1,0.2,0.1,0.3C23,8.8,23,8.9,23,9c0.1,0.1,0,0.2,0.1,0.4
				c0,0.1,0,0.3,0.1,0.4c0,0.1,0.1,0.3,0.1,0.4c0,0.1,0,0.3,0.1,0.4c0,0.1,0,0.3,0.1,0.4c0,0.1,0,0.3,0,0.4c0,0.2,0.1,0.3,0,0.5
				c0,0.2,0,0.3,0,0.5c0,0.2,0,0.3,0,0.5c0,0.1,0,0.2,0,0.2c0,0,0,0.1,0,0.1c0,0,0,0,0,0.1c0,0,0,0,0,0c0,0,0,0,0,0c0,0,0,0,0,0
				c0,0.2,0,0.3-0.1,0.5l0,0.1l0,0c0,0,0,0,0,0l0,0l0,0l-0.1,0c-0.1,0-0.1,0-0.2-0.1c-0.1,0-0.2-0.1-0.3-0.1c-0.1,0-0.2,0-0.2-0.1
				c-0.1-0.1-0.3-0.1-0.5-0.1c-0.2,0-0.3-0.1-0.5-0.1c-0.1,0-0.2,0-0.2-0.1c-0.1,0-0.3-0.1-0.4-0.1l0,0c0-0.1,0-0.1-0.1-0.2l0-0.1
				l0,0l0-0.1c0-0.1,0-0.2-0.1-0.2c-0.1-0.2-0.1-0.3-0.1-0.5c-0.1-0.2-0.1-0.3-0.1-0.5c0-0.2,0-0.3-0.1-0.5
				c-0.1-0.1-0.2-0.3-0.1-0.4c-0.1-0.1,0-0.3-0.1-0.4c0-0.2-0.1-0.3-0.1-0.4c0-0.1,0-0.3-0.1-0.4c-0.1-0.1,0-0.3-0.1-0.4
				c0-0.1,0-0.1,0-0.2c0,0,0-0.1,0-0.1c0,0,0-0.1-0.1-0.1c0,0,0-0.1,0-0.1c0.1-0.1,0.1-0.1,0.2-0.2l0,0l0,0c0,0,0,0,0.1,0
				c0-0.2,0.2-0.2,0.2-0.2c0.1-0.1,0.1-0.2,0.2-0.2c0-0.1,0.1-0.2,0.2-0.2c0.1-0.1,0.1-0.2,0.2-0.2c0-0.1,0.1-0.1,0.2-0.2
				c0.1,0,0.1-0.1,0.2-0.2c0-0.1,0.1-0.1,0.2-0.1c0,0,0.1-0.1,0.1-0.1C21.7,6.7,21.9,6.5,21.9,6.6z"/>
		</g>
		<g>
			<path class="st0" d="M22.4,16.2c0,0-0.2,0-0.5-0.1c-0.1,0-0.1,0-0.2,0c-0.1,0-0.1,0-0.2,0c-0.1-0.1-0.2,0-0.2,0
				c-0.1,0-0.2,0-0.2-0.1c-0.1,0-0.2-0.1-0.3-0.1c-0.1,0-0.2-0.1-0.3-0.1c0,0,0,0-0.1,0c0,0,0,0,0,0c0,0,0,0-0.1,0l0,0c0,0,0,0,0,0
				c0,0,0,0,0,0c0,0,0,0,0,0c0,0,0,0,0,0c0,0-0.1,0.1-0.1,0.1c-0.1,0-0.2,0.1-0.2,0.3c-0.2,0-0.2,0.1-0.3,0.3
				c-0.1,0.1-0.2,0.2-0.3,0.3c-0.1,0.1-0.2,0.2-0.3,0.3c-0.1,0.1-0.2,0.2-0.3,0.3c-0.1,0.1-0.2,0.2-0.3,0.3
				c-0.1,0.1-0.2,0.3-0.3,0.3c-0.1,0.1-0.2,0.2-0.3,0.3c-0.1,0.1-0.3,0.2-0.3,0.3c0,0-0.1,0.1-0.1,0.1l0,0c0,0,0,0,0,0l0,0
				c0,0,0,0,0,0c0,0,0,0,0,0c0,0,0,0,0,0c0,0,0,0,0,0c0,0,0,0,0,0c0,0,0,0,0,0.1c0,0,0,0.1,0,0.1c0,0.1,0,0.2,0,0.2
				c0.1,0.2,0,0.3,0.1,0.5c0,0.2,0.1,0.3,0.1,0.5c0,0.2,0,0.3,0.1,0.5c0,0.1,0.1,0.2,0.1,0.2l0,0.1c0,0,0,0,0,0c0,0,0,0,0,0
				c0,0,0,0.1,0,0.1c0,0,0,0,0.1-0.1c0,0,0,0,0,0c0,0,0,0,0,0c0,0,0,0,0,0l0,0l0.1,0c0.1,0,0.1-0.1,0.2-0.1c0.1,0,0.1-0.1,0.2-0.1
				c0.1,0,0.1-0.1,0.2-0.1c0.1-0.2,0.3-0.2,0.4-0.3c0.1-0.1,0.2-0.2,0.3-0.3c0.1-0.1,0.2-0.2,0.3-0.3c0.1-0.1,0.2-0.2,0.3-0.3
				c0.1-0.1,0.2-0.2,0.3-0.3c0.1-0.1,0.2-0.2,0.3-0.3c0.1,0,0.1-0.1,0.1-0.1c0-0.1,0.1-0.1,0.1-0.2c0.1-0.1,0.1-0.2,0.2-0.3
				c0.1-0.1,0.2-0.2,0.2-0.3c0-0.1,0.2-0.1,0.2-0.3c0,0,0.1-0.1,0.1-0.1c0,0,0.1-0.1,0.1-0.1c0-0.1,0.1-0.2,0.1-0.2
				c0-0.1,0.1-0.1,0.1-0.2c0-0.1,0.1-0.1,0.1-0.2c0-0.1,0.1-0.1,0.1-0.2c0-0.1,0.1-0.1,0.1-0.2c0-0.1,0.1-0.1,0.1-0.1
				C22.3,16.3,22.4,16.2,22.4,16.2c0,0-0.1,0.5-0.5,1.3c0,0.1,0,0.2-0.1,0.2c0,0,0,0.1-0.1,0.1c0,0,0,0.1-0.1,0.1
				c0,0.1-0.1,0.2-0.2,0.3c-0.1,0.1-0.1,0.2-0.2,0.3c0,0.1-0.2,0.2-0.2,0.3c-0.1,0-0.1,0.1-0.1,0.1c0,0.1-0.1,0.1-0.1,0.2
				c-0.1,0.1-0.2,0.2-0.3,0.3c-0.1,0.1-0.2,0.2-0.3,0.3c-0.1,0.1-0.2,0.2-0.3,0.3c-0.1,0.1-0.2,0.2-0.3,0.3
				c-0.1,0.1-0.2,0.2-0.3,0.3c-0.1,0.1-0.2,0.2-0.4,0.3c-0.1,0.1-0.1,0.1-0.2,0.1c-0.1,0-0.1,0.1-0.2,0.1c-0.1,0.1-0.1,0.1-0.2,0.1
				c0,0,0,0-0.1,0c0,0,0,0,0,0l0,0c-0.1,0-0.1,0.1-0.2,0.1c-0.2,0.1-0.3,0.2-0.5,0.3c0-0.1-0.1-0.2-0.1-0.3c0-0.1-0.1-0.3-0.1-0.4
				c0-0.1,0-0.2-0.1-0.2c0-0.2-0.1-0.3-0.1-0.5c-0.1-0.2-0.1-0.3-0.1-0.5C17,19.8,17,19.6,17,19.5c0-0.1,0-0.2-0.1-0.2
				c0,0,0-0.1,0-0.1c0,0,0,0,0-0.1c0,0,0-0.1,0-0.1c0-0.1-0.1-0.2-0.1-0.2c0,0,0.1-0.1,0.1-0.1l0.1-0.1l0,0l0,0l0,0
				c0,0,0.1-0.1,0.1-0.1c0.1-0.1,0.2-0.2,0.3-0.3c0.1-0.1,0.3-0.2,0.3-0.3c0.1-0.1,0.1-0.3,0.3-0.3c0.1-0.1,0.2-0.2,0.3-0.3
				c0.2,0,0.2-0.2,0.3-0.3c0.1-0.1,0.2-0.2,0.3-0.3c0.1-0.1,0.2-0.2,0.3-0.3c0.1-0.1,0.2-0.1,0.3-0.3c0.1-0.1,0.2-0.2,0.3-0.2
				c0-0.2,0.1-0.1,0.3-0.3c0,0,0,0,0.1-0.1c0.1,0,0.1,0,0.2,0l0,0l0,0c0,0,0,0,0,0c0,0,0,0,0.1,0c0.1-0.1,0.2,0,0.3,0.1
				c0.1,0,0.2,0,0.3,0.1c0.1,0,0.2,0.1,0.2,0.1c0.1,0.1,0.2,0,0.2,0.1c0.1,0,0.1,0,0.2,0.1c0.1,0,0.1,0,0.2,0.1
				C22.2,16.1,22.4,16.2,22.4,16.2z"/>
		</g>
		<g>
			<path class="st0" d="M15.2,22.7c0,0-0.1-0.2-0.3-0.6c0-0.1,0-0.1-0.1-0.2c0-0.1-0.1-0.2-0.1-0.2c0-0.1-0.1-0.2-0.1-0.3
				c0-0.1-0.1-0.2-0.1-0.3c0-0.1,0-0.2-0.1-0.3c-0.1-0.1,0-0.3-0.1-0.4c-0.1-0.1-0.1-0.3-0.1-0.4c0-0.1,0-0.1,0-0.2l0,0c0,0,0,0,0,0
				c0,0,0,0,0,0c0,0,0,0,0,0c0,0,0,0,0,0c0,0,0,0,0,0c0,0,0,0,0,0c0,0,0,0,0,0l0,0c0,0-0.1,0-0.1,0c-0.1,0-0.2,0-0.2,0
				c-0.1-0.1-0.3-0.2-0.5-0.1c-0.2,0-0.3-0.1-0.5-0.1c-0.2,0-0.3-0.1-0.5-0.1c-0.2,0-0.4,0-0.5-0.1c-0.2,0-0.4-0.1-0.5-0.1
				c-0.2-0.1-0.4,0-0.5-0.1c-0.2-0.1-0.4-0.1-0.6-0.1l-0.1,0l0,0l0,0l0,0c0,0,0,0,0,0c0,0,0,0,0,0c0,0-0.1,0.1-0.1,0.1
				c-0.1,0.2-0.3,0.3-0.4,0.4c-0.1,0.2-0.3,0.3-0.4,0.4c-0.1,0.2-0.3,0.3-0.4,0.4c-0.2,0.1-0.3,0.3-0.5,0.5C8,20.6,7.9,20.8,7.7,21
				c-0.1,0.2-0.3,0.3-0.5,0.4c-0.1,0-0.1,0.1-0.2,0.1l0,0l0,0l0,0c0,0,0,0,0,0c0,0,0,0,0,0c0,0,0,0,0,0c0,0,0,0,0,0l0,0l0,0
				c0,0,0,0,0,0.1l0,0c0,0,0,0,0,0l0,0c0,0,0,0,0,0c0,0,0,0,0,0l0,0l0,0l0,0l0,0l0,0c0.1,0,0.1,0.1,0.2,0.1c0,0,0.1,0,0.1,0.1
				c0,0,0.1,0,0.1,0.1c0.1,0,0.2,0.1,0.3,0.1c0.1,0,0.2,0,0.3,0.1c0.1,0,0.2,0.1,0.3,0.1c0.1,0.1,0.2,0.1,0.3,0.1
				c0.1,0,0.2,0,0.3,0.1c0,0,0.1,0,0.1,0c0,0,0.1,0,0.1,0c0.1,0,0.2,0.1,0.3,0.1c0.2,0,0.3,0,0.5,0.1c0.1,0,0.2,0,0.3,0
				c0.1,0,0.2,0.1,0.2,0c0,0,0.1,0,0.1,0c0,0,0.1,0,0.1,0c0.1,0,0.2,0,0.2,0c0.2,0.1,0.3,0,0.5,0c0.2,0,0.3,0,0.4,0
				c0.1,0,0.3,0,0.4,0c0.1,0,0.1,0,0.2,0c0.1,0,0.1,0,0.2,0c0.1,0,0.1,0,0.2,0c0.1,0,0.1,0,0.2,0c0.1-0.1,0.2,0,0.3,0
				c0.1,0,0.2,0,0.3,0C14.7,22.8,15.2,22.6,15.2,22.7c0,0-0.1,0.1-0.4,0.2c-0.3,0.1-0.7,0.2-1.3,0.3c-0.1,0-0.2,0.1-0.3,0.1
				c-0.1,0-0.1,0-0.2,0c-0.1,0-0.1,0-0.2,0c-0.1,0-0.1,0.1-0.2,0c-0.1,0-0.1,0-0.2,0c-0.1,0-0.3,0-0.4,0c-0.1,0-0.3,0-0.5,0
				c-0.2-0.1-0.3-0.1-0.5,0c-0.1,0-0.2,0-0.2,0c0,0-0.1,0-0.1,0c0,0-0.1,0-0.1,0c-0.1,0-0.2-0.1-0.3-0.1c-0.1,0-0.2,0-0.3,0
				c-0.2,0-0.3-0.1-0.5-0.1c-0.1,0-0.2,0-0.3-0.1c0,0-0.1,0-0.1,0c0,0-0.1,0-0.1,0c-0.1,0-0.2,0-0.3-0.1c-0.1,0-0.2-0.1-0.3-0.1
				c-0.1,0-0.2-0.1-0.3-0.1c-0.1,0-0.2-0.1-0.3-0.1c-0.1,0-0.2-0.1-0.3-0.1c0,0-0.1,0-0.1-0.1c0,0-0.1,0-0.1-0.1
				c-0.1,0-0.1-0.1-0.2-0.1l0,0l0,0l0,0l0,0l0,0c-0.1,0-0.1-0.1-0.2-0.1c0-0.1,0-0.1,0-0.1l0,0c0,0,0,0,0,0c0,0,0,0,0,0l0-0.1l0-0.1
				c0-0.1,0-0.1-0.1-0.2c0.1-0.1,0.2-0.2,0.2-0.2c0,0,0.1-0.1,0.1-0.1c0.2-0.1,0.3-0.3,0.4-0.4c0.2-0.1,0.3-0.3,0.5-0.5
				C8,20,8.1,19.9,8.3,19.7c0.1-0.2,0.3-0.3,0.5-0.4c0.1-0.2,0.3-0.3,0.4-0.4c0.1-0.2,0.3-0.3,0.4-0.4c0,0,0.1-0.1,0.1-0.1
				c0.1-0.1,0.1-0.1,0.2-0.2c0.1,0,0.2,0,0.3,0.1l0,0l0,0l0,0c0,0,0,0,0.1,0c0.2,0.1,0.4,0.2,0.6,0.2c0.2,0,0.4,0,0.5,0.2
				c0.2,0,0.3,0.1,0.5,0.1c0.2,0.1,0.3,0.1,0.5,0.1c0.2,0.1,0.3,0.1,0.5,0.1c0.2,0,0.3,0.1,0.5,0.1c0.2,0,0.3,0.1,0.5,0.1
				c0.1,0,0.1,0,0.2,0.1c0,0,0.1,0,0.1,0l0.1,0c0,0,0.1,0,0.1,0c0,0,0.1,0,0.1,0c0,0,0,0.1,0.1,0.2c0,0,0,0.1,0,0.1c0,0,0,0,0,0l0,0
				c0,0.1,0,0.1,0,0.2c0,0.1,0.1,0.2,0.1,0.4c0.1,0.1,0.1,0.2,0.1,0.4c0,0.1,0.1,0.2,0.1,0.3c0.1,0.1,0,0.2,0.1,0.3
				c0,0.1,0,0.2,0.1,0.3c0,0.1,0.1,0.2,0.1,0.3c0,0.1,0,0.2,0,0.2C15.2,22.4,15.2,22.7,15.2,22.7z"/>
		</g>
		<g>
			<path class="st0" d="M3.5,19.2c0,0,0.3,0,0.8,0.1c0.1,0,0.2,0,0.3,0.1c0,0,0.1,0,0.1,0c0,0,0,0,0.1,0c0,0,0.1,0,0.1,0
				c0,0,0.1,0,0.1,0c0,0,0,0,0-0.1c0,0,0,0,0,0c0,0,0,0,0,0c0,0,0,0,0,0c0.1-0.1,0.2-0.2,0.3-0.3c0.1-0.1,0.2-0.2,0.3-0.3
				c0-0.2,0.3-0.1,0.3-0.3c0.1-0.1,0.2-0.2,0.3-0.3c0.2-0.1,0.2-0.2,0.3-0.4c0.2-0.1,0.3-0.2,0.4-0.4C7,17.3,7.2,17.2,7.2,17
				c0.1-0.1,0.3-0.2,0.4-0.4c0.1-0.1,0.1-0.1,0.2-0.2l0,0l0,0c0,0,0,0,0,0l0,0c0,0,0,0,0,0c0,0,0,0,0,0l0,0c0,0,0,0,0,0l0,0l0,0
				c0,0,0,0,0-0.1c0,0,0-0.1-0.1-0.1c0-0.1,0-0.2,0-0.3c-0.1-0.2-0.1-0.4-0.2-0.6c0-0.2-0.2-0.4-0.2-0.6c-0.1-0.2-0.1-0.4-0.2-0.7
				c0-0.2-0.1-0.5-0.2-0.7c-0.1-0.2-0.2-0.4-0.2-0.7c0-0.1-0.1-0.1-0.1-0.2c0,0,0,0,0,0l0,0c0,0,0,0,0,0c0,0,0,0,0,0c0,0,0,0,0,0
				c0,0,0,0,0,0c0,0,0,0,0,0l0,0c-0.1,0-0.1,0-0.2-0.1C6.3,12.1,6.1,12,5.8,12c-0.2-0.1-0.5-0.1-0.7-0.2c-0.2-0.1-0.5-0.2-0.7-0.2
				c-0.3,0-0.5-0.1-0.7-0.2c-0.2-0.1-0.5-0.1-0.7-0.2c-0.1,0-0.1,0-0.2-0.1l-0.1,0l0,0c0,0,0,0,0,0c0,0,0,0,0,0c0,0,0,0,0,0l0,0l0,0
				c0,0,0,0,0,0.1c-0.2,0.2-0.3,0.3-0.5,0.5C2,12,1.7,12,1.6,12.2c-0.2,0.1-0.3,0.3-0.5,0.5c0,0,0,0,0,0l0,0l0,0l0,0c0,0,0,0,0,0
				l0,0l0,0l0,0l0,0l0,0.1c0,0.1,0,0.1,0,0.2c0,0.1,0,0.2,0,0.3c0,0.1,0,0.1,0,0.1c0,0,0,0.1,0,0.2c0,0.1,0,0.2,0.1,0.3
				c0,0.1,0,0.2,0.1,0.3c0,0,0,0.1,0,0.1c0,0,0,0.1,0,0.1c0,0.1,0,0.2,0.1,0.3c0,0.1,0,0.2,0,0.3c0,0.1,0.1,0.2,0.1,0.2
				c0,0.2,0.2,0.3,0.2,0.5c0,0.1,0,0.2,0.1,0.2c0,0.1,0.1,0.2,0.1,0.2c0,0.1,0,0.2,0.1,0.2c0,0.1,0,0.1,0.1,0.2
				c0,0.1,0.1,0.1,0.1,0.2c0,0.1,0,0.1,0.1,0.2c0.1,0,0.1,0.1,0.1,0.2c0,0.1,0,0.1,0.1,0.2c0.1,0.1,0.1,0.2,0.2,0.3
				C3.1,18.7,3.5,19.2,3.5,19.2c0,0-0.1,0-0.1-0.1c0,0-0.1-0.1-0.1-0.1c0,0-0.1-0.1-0.2-0.2c-0.1-0.1-0.1-0.1-0.2-0.2
				c-0.1-0.1-0.1-0.2-0.2-0.3c0-0.1-0.1-0.1-0.1-0.2c0-0.1-0.1-0.1-0.1-0.2c0-0.1-0.1-0.1-0.1-0.2c0-0.1-0.1-0.1-0.1-0.2
				c0-0.1-0.1-0.1-0.1-0.2C2,17.4,2,17.3,2,17.2c0-0.1-0.1-0.1-0.1-0.2c0-0.1-0.1-0.1-0.1-0.2c-0.1-0.1-0.1-0.1-0.1-0.2
				c0-0.1,0-0.2-0.1-0.2c0-0.1-0.1-0.2-0.1-0.2c0-0.1-0.1-0.2-0.1-0.2c-0.1-0.1-0.1-0.3-0.2-0.5c0-0.1,0-0.2-0.1-0.3
				C1.1,15.1,1,15,1,14.9c0-0.1,0-0.2-0.1-0.3c0,0,0-0.1,0-0.1c0,0,0-0.1,0-0.1c0-0.1,0-0.2,0-0.3c0-0.1-0.1-0.2-0.1-0.3
				c0-0.1,0-0.1,0-0.2c0-0.1,0-0.1,0-0.2c0-0.1,0-0.2,0-0.3c0-0.1,0-0.2,0-0.2c0,0,0-0.1,0-0.1c0-0.1,0-0.1,0-0.2
				c0,0,0.1-0.1,0.1-0.1l0.1-0.1l0,0c0.1-0.2,0.3-0.3,0.5-0.5c0.1-0.2,0.3-0.3,0.5-0.5c0.1-0.2,0.3-0.3,0.5-0.5c0,0,0,0,0-0.1
				l0.1-0.1c0.1-0.1,0.1-0.1,0.2-0.2l0.2,0.1l0.1,0c0,0,0,0,0.1,0c0.1,0,0.1,0,0.2,0c0.2,0.1,0.5,0.1,0.7,0.2
				C4,11,4.2,11.1,4.5,11.1c0.2,0.1,0.5,0.2,0.7,0.2c0.2,0,0.5,0.1,0.7,0.2c0.2,0.1,0.5,0.1,0.7,0.2c0.1,0,0.1,0,0.2,0
				c0.1,0,0.2,0.1,0.3,0.1l0,0.2l0,0.1c0,0.1,0,0.1,0.1,0.2c0.1,0.2,0.1,0.5,0.2,0.7c0.1,0.2,0.2,0.4,0.2,0.7c0.1,0.2,0,0.5,0.2,0.7
				C7.9,14.6,8,14.8,8,15C8,15.2,8,15.4,8.1,15.6c0,0.1,0,0.2,0,0.3c0,0,0,0.1,0.1,0.1c0,0,0,0,0,0.1l0,0l0,0.1c0,0.1,0,0.1,0,0.2
				c-0.2,0.2-0.3,0.3-0.4,0.4c-0.1,0.2-0.3,0.3-0.4,0.4c-0.1,0.2-0.3,0.2-0.4,0.4C7,17.8,6.8,17.9,6.7,18c0,0.2-0.2,0.2-0.4,0.3
				c-0.1,0.1-0.2,0.3-0.3,0.3C6,18.8,5.8,18.9,5.7,19c-0.1,0.1-0.2,0.2-0.3,0.3c-0.1,0.1-0.2,0.2-0.3,0.3c0,0,0,0,0,0c0,0,0,0-0.1,0
				c0,0-0.1,0.1-0.1,0.1c-0.1,0-0.1,0-0.2,0c0,0-0.1,0-0.1,0c0,0-0.1,0-0.1,0c0,0-0.1,0-0.1-0.1c-0.1,0-0.2-0.1-0.3-0.1
				C3.7,19.3,3.5,19.2,3.5,19.2z"/>
		</g>
		<g>
			<path class="st0" d="M2.6,5.7c0,0,0.1,0.2,0.3,0.7C2.9,6.5,3,6.6,3,6.7C3,6.8,3.1,6.9,3.1,7c0,0.1,0.1,0.2,0.1,0.3
				c0,0.1,0.1,0.2,0.1,0.4c0,0.1,0,0.1,0,0.2c0,0,0,0.1,0,0.1c0,0,0,0,0,0c0,0,0,0,0,0c0,0,0,0,0,0c0,0,0,0,0.1,0.1
				c0.1,0,0.1,0,0.2,0c0.2,0,0.3,0.1,0.5,0.1c0.1,0.1,0.3,0.1,0.5,0.1c0.1,0.1,0.3,0.1,0.5,0.1c0.1,0.1,0.3,0.2,0.5,0.1
				c0.2,0,0.4,0.1,0.6,0.1c0.2,0,0.4,0.1,0.6,0.2c0.2,0,0.4,0,0.6,0.2c0.1,0,0.1,0,0.2,0c0,0,0,0,0,0c0,0,0,0,0,0l0,0l0,0l0,0
				c0,0,0,0,0,0c0,0,0.1-0.1,0.1-0.1C7.9,8.9,8,8.7,8.2,8.5c0.2-0.2,0.3-0.3,0.5-0.5c0.2-0.1,0.4-0.3,0.5-0.5
				c0.2-0.2,0.3-0.4,0.5-0.5c0.1-0.2,0.3-0.4,0.5-0.5c0.1-0.1,0.2-0.2,0.2-0.2c0,0,0.1-0.1,0.1-0.1l0,0l0,0c0,0,0,0,0,0c0,0,0,0,0,0
				c0,0,0,0,0,0c0,0,0,0,0,0c0,0,0-0.1,0-0.1c0-0.1,0-0.1-0.1-0.2c0-0.1-0.1-0.2-0.1-0.4c0-0.3-0.1-0.5-0.2-0.7
				C10.1,4.5,10.1,4.3,10,4c0-0.3-0.1-0.5-0.2-0.7C9.8,3.1,9.8,2.9,9.7,2.6c0-0.1-0.1-0.2-0.1-0.3c0-0.1,0-0.1,0-0.2l0,0
				c0,0,0,0,0,0l0,0c0,0,0,0,0,0c0,0,0,0,0,0l0,0l0,0l0,0l0,0l0,0c-0.1,0-0.1,0-0.2-0.1C9.2,2,9.1,1.9,9,1.9
				C8.8,1.8,8.6,1.8,8.4,1.7c-0.1,0-0.1,0-0.2-0.1l-0.1,0c0,0,0,0,0,0l0,0c0,0,0,0,0,0c0,0,0,0,0,0l0,0l0,0c0,0-0.1,0-0.1,0.1
				C7.7,1.8,7.5,1.9,7.3,1.9C7.2,2,7.2,2,7.1,2.1c0,0-0.1,0-0.1,0.1c0,0-0.1,0-0.1,0.1c-0.1,0-0.2,0.1-0.3,0.1
				c-0.1,0-0.2,0.1-0.2,0.1c-0.1,0-0.1,0-0.1,0c0,0-0.1,0-0.1,0.1C6,2.6,5.9,2.7,5.8,2.8c-0.1,0-0.1,0.1-0.2,0.2
				C5.6,3,5.5,3,5.4,3.1c-0.1,0-0.1,0.1-0.2,0.1c0,0-0.1,0-0.1,0.1c0,0-0.1,0.1-0.1,0.1C4.9,3.5,4.7,3.5,4.7,3.6
				C4.6,3.8,4.4,3.8,4.3,3.9C4.3,4.1,4.1,4.1,4,4.2C3.9,4.3,3.9,4.4,3.8,4.5C3.4,4.8,3.1,5.2,2.9,5.4C2.8,5.6,2.7,5.7,2.6,5.7
				c0,0,0-0.1,0-0.1c0,0,0-0.1,0.1-0.2c0-0.1,0.1-0.1,0.1-0.2C2.9,5.2,3,5.1,3.1,5c0.1-0.1,0.1-0.2,0.2-0.3c0.1-0.1,0.2-0.2,0.3-0.3
				C3.6,4.3,3.7,4.1,3.8,4C3.9,3.9,4,3.8,4.1,3.7c0.1-0.1,0.2-0.2,0.3-0.3c0.1-0.2,0.2-0.2,0.4-0.3c0,0,0.1-0.1,0.1-0.1
				C4.9,3,5,3,5,2.9c0.1,0,0.1-0.1,0.2-0.2c0.1-0.1,0.1-0.1,0.2-0.2c0.1,0,0.2-0.1,0.2-0.2c0.1,0,0.2-0.1,0.2-0.1
				c0,0,0.1-0.1,0.1-0.1c0,0,0.1-0.1,0.1-0.1c0.1,0,0.2-0.1,0.3-0.1C6.4,2,6.5,1.9,6.6,1.8c0.1,0,0.1,0,0.1,0c0,0,0.1,0,0.1-0.1
				C7,1.7,7.1,1.6,7.2,1.6c0.2-0.1,0.4-0.2,0.6-0.3c0,0,0.1,0,0.1,0c0.1,0,0.1,0,0.2-0.1c0.1,0,0.1,0,0.2,0c0,0,0.1,0,0.1,0
				c0.1,0,0.1,0,0.2,0.1c0.2,0,0.4,0.1,0.6,0.2c0.1,0,0.2,0,0.3,0.1c0.1,0,0.1,0,0.2,0c0.1,0,0.2,0.1,0.3,0.1c0,0,0,0,0,0.1
				c0,0,0,0.1,0,0.2L10,2c0,0.1,0,0.1,0,0.2c0,0.1,0.1,0.2,0.1,0.3c0.1,0.2,0,0.5,0.2,0.7c0.1,0.2,0.1,0.5,0.2,0.7
				c0.1,0.2,0.1,0.5,0.2,0.7c0,0.3,0.1,0.5,0.2,0.7c0,0.1,0.1,0.2,0.1,0.4c0,0.1,0,0.1,0,0.2l0,0.1l0,0.2c0,0,0,0.1,0,0.1
				c-0.1,0.1-0.1,0.1-0.2,0.2c0,0-0.1,0.1-0.1,0.1c-0.1,0.1-0.2,0.2-0.2,0.2c-0.2,0.2-0.4,0.3-0.5,0.5C9.9,7.6,9.7,7.7,9.5,7.9
				C9.4,8.1,9.2,8.2,9,8.4C8.8,8.5,8.6,8.7,8.5,8.9C8.4,9,8.3,9.2,8,9.3c0,0-0.1,0.1-0.1,0.1L7.8,9.5L7.7,9.6
				c-0.1,0-0.2-0.1-0.3-0.1c-0.1,0-0.1,0-0.2,0C7.1,9.4,6.9,9.4,6.7,9.4C6.5,9.3,6.3,9.2,6.1,9.2C5.9,9.2,5.7,9.1,5.6,9
				C5.4,9,5.2,8.9,5,8.9C4.9,8.8,4.7,8.8,4.5,8.7C4.3,8.8,4.2,8.6,4,8.6c-0.2-0.1-0.3,0-0.5-0.1c-0.1,0-0.1,0-0.2,0l0,0l0,0
				c0,0,0,0-0.1,0c0,0-0.1,0-0.1-0.1c0-0.1,0-0.1,0-0.2c0,0,0-0.1,0-0.1c0,0,0,0,0-0.1c0,0,0-0.1,0-0.1c0-0.1,0-0.1,0-0.2
				C3,7.6,3,7.5,3,7.4c0-0.1-0.1-0.2-0.1-0.3c0-0.1-0.1-0.2-0.1-0.3c0-0.1,0-0.2-0.1-0.3C2.7,6,2.6,5.7,2.6,5.7z"/>
		</g>
	</g>
</g>
</svg>
