<?xml version="1.0" encoding="utf-8"?>
<!-- Generator: Adobe Illustrator 27.5.0, SVG Export Plug-In . SVG Version: 6.00 Build 0)  -->
<svg version="1.1" id="Layer_1" xmlns="http://www.w3.org/2000/svg" xmlns:xlink="http://www.w3.org/1999/xlink" x="0px" y="0px"
	 viewBox="0 0 24 24" style="enable-background:new 0 0 24 24;" xml:space="preserve">
<g>
	<g>
		<g>
			<g>
				<path d="M8.4,7c0,0-0.1,0-0.1-0.3S8.2,5.9,8,5C7.9,4.8,7.9,4.5,7.8,4.2C7.7,4.1,7.7,3.9,7.6,3.8C7.5,3.7,7.4,3.5,7.3,3.4
					c-0.4-0.5-1.2-1-2.2-1.2c-0.5-0.1-1-0.1-1.6,0C2.9,2.3,2.3,2.6,1.8,3C1.7,3.1,1.6,3.2,1.4,3.4C1.3,3.5,1.2,3.7,1.1,3.8
					c-0.2,0.3-0.3,0.6-0.4,1c-0.1,0.8,0,1.6,0,2.6c0.1,2,0.3,4.6,0.5,7.4c0,0.7,0.1,1.4,0.1,2.1s0.1,1.4,0.2,2.1
					c0.1,0.7,0.3,1.3,0.7,1.9c0.3,0.6,0.8,1,1.4,1.2c1.2,0.4,2.6,0.2,3.4-0.5c0.4-0.4,0.7-0.8,0.9-1.3s0.2-1,0.2-1.4
					c0-0.9,0-1.6,0-2.1c0-0.2,0-0.4,0-0.6c0-0.2,0-0.2,0-0.2s0,0.3,0,0.8s0.1,1.2,0.1,2.1c0,0.4,0,0.9-0.2,1.4s-0.5,1-0.9,1.4
					c-0.5,0.4-1.1,0.7-1.7,0.8c-0.6,0.1-1.3,0.1-2-0.2c-0.7-0.2-1.3-0.7-1.6-1.4c-0.4-0.6-0.6-1.3-0.7-2c-0.1-0.7-0.2-1.4-0.3-2.1
					s-0.1-1.4-0.2-2.1c-0.2-2.8-0.4-5.4-0.5-7.4C0,6.4-0.1,5.5,0.1,4.6c0.1-0.4,0.2-0.8,0.4-1.2c0.1-0.2,0.2-0.3,0.4-0.5
					C1,2.8,1.2,2.6,1.3,2.5C1.9,2,2.6,1.7,3.2,1.6c0.6-0.1,1.2-0.1,1.8,0c1.3,0.5,2.2,1,2.6,1.7c0.1,0.2,0.2,0.3,0.3,0.5
					S8,4.1,8.1,4.3S8.3,4.8,8.3,5c0.2,1,0.1,1.5,0.1,1.7C8.4,7,8.4,7,8.4,7L8.4,7z"/>
			</g>
		</g>
		<g>
			<g>
				<path d="M4,7.5c0-0.1,0.1-0.1,1.6-0.2c0.8,0,1.9-0.1,3.6-0.1c0.9,0,1.8-0.1,3-0.1c0.6,0,3.6,0,4.2-0.1c0.3,0,0.7,0,1,0
					c0.4,0,0.9,0.3,1.1,0.7c0.1,0.1,0.1,0.2,0.1,0.4c0,0.1,0,0.2,0,0.3c0,0.2,0,0.4,0,0.7c0,0.5,0,1,0,1.5c0,1,0,2.1,0.1,3.2
					c0,0.3,0,0.6,0,0.8V15c0,0.1,0,0.3-0.1,0.5c-0.1,0.3-0.4,0.6-0.7,0.7c-0.2,0.1-0.4,0.1-0.5,0.1H17c-1.1,0-4.7,0-5.7,0.1
					c-2.2,0-4.1,0.1-5.5,0.1c-0.7,0-1.3,0-1.7,0s-0.6,0-0.6,0s0.2,0,0.6-0.1c0.4,0,1-0.1,1.7-0.1c1.4-0.1,3.4-0.1,5.5-0.2
					c1.1,0,4.6-0.1,5.7-0.1h0.4c0.2,0,0.2,0,0.4-0.1s0.4-0.3,0.4-0.5c0-0.1,0-0.2,0-0.4v-0.4c0-0.3,0-0.6,0-0.8
					c0-1.1-0.1-2.2-0.1-3.2c0-0.5,0-1,0-1.5c0-0.2,0-0.5,0-0.7s0-0.4-0.1-0.5c-0.1-0.3-0.4-0.4-0.7-0.4s-0.7,0-1,0
					c-0.7,0-3.7,0-4.2,0c-1.1,0-2.1,0-3,0.1c-1.7,0-2.8,0-3.6,0C4.1,7.6,4,7.5,4,7.5L4,7.5z"/>
			</g>
		</g>
		<g>
			<g>
				<path d="M6,7.6C6,7.6,5.9,7.6,6,7.6C5.9,7.4,5.9,7.1,5.8,6.7c0-0.2-0.1-0.5-0.3-0.8c-0.2-0.2-0.6-0.4-1-0.2
					C4.3,5.8,4.1,6,3.9,6.2C3.8,6.4,3.7,6.7,3.6,7.1C3.5,7.4,3.5,7.8,3.5,8.2c0,0.4,0,0.8,0,1.3c0,1,0,2.3,0,3.7
					c0,0.7,0,1.4,0.1,2.1c0.1,0.7,0.1,1.4,0.2,2.1C3.9,17.7,4,18,4.2,18.2c0.2,0.2,0.4,0.4,0.7,0.4c0.3,0.1,0.5,0,0.7-0.1
					S5.9,18.2,6,18c0.2-0.4,0.2-0.8,0.2-1s0-0.4,0-0.4s0,0.1,0.1,0.4c0,0.2,0,0.6-0.1,1.1c-0.1,0.2-0.2,0.5-0.4,0.6
					c-0.2,0.2-0.6,0.3-0.9,0.2c-0.3-0.1-0.6-0.2-0.9-0.5c-0.2-0.3-0.4-0.6-0.5-0.9s-0.1-0.7-0.2-1.1c0-0.4-0.1-0.7-0.1-1.1
					c-0.1-0.7-0.1-1.4-0.1-2.1C3,11.8,3,10.5,3.1,9.4c0-0.5,0-0.9,0-1.3c0-0.4,0-0.8,0.1-1.2c0.1-0.4,0.2-0.7,0.4-1s0.5-0.5,0.7-0.6
					c0.3-0.1,0.6-0.1,0.9-0.1c0.3,0.1,0.5,0.2,0.6,0.4c0.3,0.4,0.3,0.7,0.3,1c0,0.5,0,0.8-0.1,0.9C6.1,7.6,6,7.6,6,7.6L6,7.6z"/>
			</g>
		</g>
		<g>
			<g>
				<path d="M11.7,9.2c0,0,0,0.1-0.1,0.1c-0.1,0-0.3,0-0.7,0.1c-0.2,0.1-0.4,0.2-0.7,0.3c-0.3,0.2-0.6,0.4-0.9,0.7
					c-0.3,0.3-0.5,0.8-0.5,1.4c0,0.6,0.3,1.2,1,1.7s1.9,0.8,3,0.5c0.6-0.2,1.1-0.5,1.5-0.9s0.6-1,0.5-1.6s-0.4-1.1-0.7-1.4
					c-0.4-0.3-0.8-0.6-1.2-0.7C12.2,9.2,11.7,9.2,11.7,9.2s0.1,0,0.4,0c0.2,0,0.6,0,1,0.1S14,9.6,14.4,10c0.4,0.4,0.8,0.9,0.9,1.6
					c0.1,0.7-0.1,1.4-0.6,1.9c-0.4,0.5-1.1,0.9-1.7,1.1c-1.3,0.4-2.6,0.1-3.4-0.5c-0.7-0.5-1.2-1.3-1.2-2.1c0-0.7,0.3-1.3,0.6-1.7
					s0.7-0.6,1-0.8s0.6-0.2,0.8-0.3c0.5-0.1-0.3-0.1-0.2-0.1C10.7,9.1,11.7,9.1,11.7,9.2L11.7,9.2z"/>
			</g>
		</g>
		<g>
			<g>
				<path d="M18.4,14.1c0,0.1,0,0.1-0.2,0.2c-0.2,0.1-0.5,0-1,0.3c-0.3,0.1-0.8,0.4-1.1,0.7c-0.3,0.3-0.5,0.6-0.6,0.6s0-0.4,0.3-0.8
					c0.1-0.2,0.3-0.4,0.5-0.6s0.4-0.3,0.6-0.4c0.3-0.1,0.6-0.2,0.8-0.2s0.3,0,0.4,0C18.4,13.9,18.4,14,18.4,14.1L18.4,14.1z"/>
			</g>
		</g>
		<g>
			<g>
				<path d="M18.3,9.1c0,0.1,0,0.1-0.2,0.2c-0.2,0-0.6,0.1-1.2-0.2C16.5,9,16,8.6,15.6,8.2c-0.4-0.4-0.5-0.8-0.5-0.8
					c0.1,0,0.3,0.3,0.7,0.6c0.4,0.3,0.9,0.5,1.2,0.7c0.6,0.2,0.9,0.2,1.1,0.3C18.3,8.9,18.3,9,18.3,9.1L18.3,9.1z"/>
			</g>
		</g>
		<g>
			<g>
				<path d="M9.8,5c0-0.3-0.1-0.7-0.4-1.1C9,3.1,8.4,2.7,8.3,2.7c0,0.1,0.5,0.5,0.9,1.3c0.2,0.4,0.3,0.7,0.4,1
					c0.1,0.3,0.1,0.4,0.1,0.4C9.7,5.5,9.8,5.3,9.8,5L9.8,5z"/>
			</g>
			<g>
				<path d="M10.6,5.8c0,0,0-0.3,0-0.7c-0.1-0.4-0.2-1-0.5-1.5c-0.3-0.6-0.7-1-1-1.3S8.5,1.9,8.5,1.9c0,0.1,0.8,0.7,1.4,1.7
					C10.4,4.8,10.5,5.8,10.6,5.8L10.6,5.8z"/>
			</g>
		</g>
		<g>
			<g>
				<path d="M12,17.7c-0.2,0-0.4,0-0.4,0s0.1,0.1,0.4,0.2c0.2,0.1,0.6,0.1,0.9,0c0.7-0.2,1.2-0.5,1.2-0.6s-0.5,0.2-1.2,0.3
					C12.5,17.7,12.2,17.7,12,17.7L12,17.7z"/>
			</g>
			<g>
				<path d="M11.7,18.5c0.3,0.1,0.8,0.1,1.3,0s0.9-0.3,1.2-0.5s0.4-0.3,0.4-0.4s-0.7,0.4-1.7,0.6s-1.8,0-1.8,0.1
					C11.2,18.3,11.4,18.4,11.7,18.5L11.7,18.5z"/>
			</g>
		</g>
	</g>
	<g>
		<g>
			<g>
				<path d="M20.9,8.6c0.7,0.8,1.4,1.6,2.2,2.4c0.1,0.1,0.2,0.2,0.3,0.3c0.1,0.2-0.1,0.3-0.2,0.4c-0.4,0.5-0.8,1-1.2,1.5
					c-0.3,0.4-0.6,0.8-0.9,1.2c-0.2,0.3,0.2,0.5,0.4,0.3c0.7-0.9,1.4-1.8,2.1-2.6c0.1-0.1,0.2-0.2,0.3-0.3c0.2-0.3,0.1-0.5-0.1-0.7
					c-0.4-0.4-0.8-0.9-1.2-1.3c-0.5-0.7-0.9-1.1-1.3-1.5C21.2,8.1,20.7,8.3,20.9,8.6L20.9,8.6z"/>
			</g>
		</g>
		<g>
			<g>
				<path d="M19.5,9.2c0.5,0.6,1.1,1.1,1.6,1.7c0.1,0.1,0.2,0.1,0.2,0.2c0.1,0.1-0.1,0.2-0.1,0.3c-0.3,0.4-0.6,0.7-0.9,1.1
					c-0.2,0.3-0.5,0.6-0.7,0.8s0.2,0.4,0.3,0.2c0.5-0.6,1-1.3,1.5-1.9c0.1-0.1,0.1-0.1,0.2-0.2c0.1-0.2,0.1-0.4-0.1-0.5
					c-0.3-0.3-0.6-0.7-0.9-1C20.3,9.6,20,9.3,19.8,9C19.6,8.9,19.3,9,19.5,9.2L19.5,9.2z"/>
			</g>
		</g>
	</g>
</g>
</svg>
